<svg width="400" height="400" viewBox="0 0 400 400" fill="none" xmlns="http://www.w3.org/2000/svg">
<path fill-rule="evenodd" clip-rule="evenodd" d="M329.691 82.101C336.077 82.101 341.608 84.4348 346.27 89.1017C350.934 93.7686 353.266 99.2943 353.267 105.682V341.482C353.267 347.862 350.932 353.392 346.265 358.06C341.604 362.726 336.072 365.06 329.687 365.06H70.3134C63.9254 365.06 58.3994 362.725 53.7329 358.06C49.0663 353.39 46.7324 347.863 46.7324 341.482V105.683C46.7324 99.2969 49.0663 93.7686 53.7329 89.1024C58.4 84.4355 63.926 82.1017 70.3134 82.1017H93.8911V64.4161C93.8911 56.3121 96.7795 49.372 102.551 43.6005C108.324 37.8277 115.263 34.9403 123.369 34.9403H135.157C143.265 34.9403 150.203 37.8277 155.974 43.6005C161.747 49.3727 164.635 56.3121 164.635 64.4161V82.1017H235.371V64.4161C235.371 56.3121 238.257 49.372 244.031 43.6005C249.803 37.8277 256.742 34.9403 264.848 34.9403H276.636C284.743 34.9403 291.679 37.8277 297.454 43.5999C303.225 49.372 306.114 56.3114 306.114 64.4154V82.101H329.691ZM260.605 60.1808C259.501 61.2835 258.954 62.6972 258.954 64.418V117.471C258.954 119.191 259.501 120.602 260.605 121.708C261.709 122.813 263.123 123.365 264.845 123.365H276.631C278.354 123.365 279.762 122.811 280.871 121.708C281.975 120.602 282.527 119.191 282.527 117.471V64.418C282.527 62.6991 281.975 61.2855 280.871 60.1808C279.763 59.0749 278.354 58.5239 276.631 58.5239H264.845C263.123 58.5239 261.709 59.0769 260.605 60.1808ZM119.131 60.1808C118.026 61.2835 117.474 62.6972 117.474 64.418V117.471C117.474 119.191 118.028 120.602 119.131 121.708C120.235 122.813 121.648 123.365 123.369 123.365H135.157C136.878 123.365 138.289 122.811 139.395 121.708C140.501 120.604 141.052 119.191 141.052 117.471V64.418C141.052 62.6991 140.499 61.2855 139.395 60.1808C138.292 59.0749 136.878 58.5239 135.157 58.5239H123.369C121.648 58.5239 120.237 59.0769 119.131 60.1808ZM70.3134 341.479H329.687V152.841H70.3134V341.479ZM108.055 176.145C104.492 176.145 101.603 179.034 101.603 182.597V200.341C101.603 203.904 104.492 206.793 108.055 206.793H143.543C147.106 206.793 149.995 203.904 149.995 200.341V182.597C149.995 179.034 147.106 176.145 143.543 176.145H108.055ZM175.804 182.597C175.804 179.034 178.693 176.145 182.256 176.145H217.743C221.307 176.145 224.196 179.034 224.196 182.597V200.341C224.196 203.904 221.307 206.793 217.743 206.793H182.256C178.693 206.793 175.804 203.904 175.804 200.341V182.597ZM256.457 176.145C252.894 176.145 250.005 179.034 250.005 182.597V200.341C250.005 203.904 252.894 206.793 256.457 206.793H291.944C295.507 206.793 298.396 203.904 298.396 200.341V182.597C298.396 179.034 295.507 176.145 291.944 176.145H256.457ZM101.603 239.054C101.603 235.491 104.492 232.602 108.055 232.602H143.543C147.106 232.602 149.995 235.491 149.995 239.054V256.798C149.995 260.361 147.106 263.25 143.543 263.25H108.055C104.492 263.25 101.603 260.361 101.603 256.798V239.054ZM182.256 232.602C178.693 232.602 175.804 235.491 175.804 239.054V256.798C175.804 260.361 178.693 263.25 182.256 263.25H217.743C221.307 263.25 224.196 260.361 224.196 256.798V239.054C224.196 235.491 221.307 232.602 217.743 232.602H182.256ZM250.005 239.054C250.005 235.491 252.894 232.602 256.457 232.602H291.944C295.507 232.602 298.396 235.491 298.396 239.054V256.798C298.396 260.361 295.507 263.25 291.944 263.25H256.457C252.894 263.25 250.005 260.361 250.005 256.798V239.054ZM108.055 289.059C104.492 289.059 101.603 291.948 101.603 295.511V313.255C101.603 316.819 104.492 319.707 108.055 319.707H143.543C147.106 319.707 149.995 316.819 149.995 313.255V295.511C149.995 291.948 147.106 289.059 143.543 289.059H108.055ZM175.804 295.511C175.804 291.948 178.693 289.059 182.256 289.059H217.743C221.307 289.059 224.196 291.948 224.196 295.511V313.255C224.196 316.819 221.307 319.707 217.743 319.707H182.256C178.693 319.707 175.804 316.819 175.804 313.255V295.511ZM256.457 289.059C252.894 289.059 250.005 291.948 250.005 295.511V313.255C250.005 316.819 252.894 319.707 256.457 319.707H291.944C295.507 319.707 298.396 316.819 298.396 313.255V295.511C298.396 291.948 295.507 289.059 291.944 289.059H256.457Z" fill="black"/>
</svg>
