<svg width="400" height="400" viewBox="0 0 400 400" fill="none" xmlns="http://www.w3.org/2000/svg">
<g clip-path="url(#clip0)">
<path fill-rule="evenodd" clip-rule="evenodd" d="M323.12 94.5575C328.002 89.6759 328.002 81.7614 323.12 76.8798C318.239 71.9983 310.324 71.9983 305.443 76.8798L200 182.322L94.5575 76.8797C89.6759 71.9982 81.7613 71.9982 76.8798 76.8797C71.9982 81.7613 71.9982 89.6758 76.8798 94.5574L182.322 200L76.8799 305.443C71.9983 310.324 71.9983 318.239 76.8799 323.12C81.7614 328.002 89.676 328.002 94.5575 323.12L200 217.678L305.443 323.12C310.324 328.002 318.239 328.002 323.12 323.12C328.002 318.239 328.002 310.324 323.12 305.443L217.678 200L323.12 94.5575Z" fill="black"/>
</g>
<defs>
<clipPath id="clip0">
<rect width="400" height="400" fill="white"/>
</clipPath>
</defs>
</svg>
