<svg width="400" height="400" viewBox="0 0 400 400" fill="none" xmlns="http://www.w3.org/2000/svg">
<path d="M328.38 254.103H48.5V263.671H328.38V254.103Z" fill="#343536"/>
<path d="M275.185 325.776H48.5V335.344H275.185V325.776Z" fill="#343536"/>
<path d="M66.2314 302.987C70.4035 302.987 73.185 300.899 74.9233 296.724L80.8338 298.986C79.617 302.117 77.7048 304.553 75.0972 306.118C72.6634 307.684 69.7082 308.38 66.2314 308.38C61.0163 308.38 56.8442 306.814 54.0628 303.857C51.1075 300.899 49.7168 296.724 49.7168 291.331C49.7168 285.938 51.1075 281.763 53.8889 278.98C56.6703 276.022 60.6686 274.631 65.8838 274.631C69.7082 274.631 72.8373 275.327 75.271 276.892C77.7048 278.458 79.4431 280.719 80.3123 283.677L74.228 285.417C73.7065 283.851 72.6634 282.459 71.2727 281.415C69.7082 280.372 67.9698 280.024 66.0576 280.024C62.9285 280.024 60.6686 281.067 58.9302 282.981C57.3657 284.895 56.4965 287.678 56.4965 291.505C56.4965 295.333 57.3657 298.116 58.9302 300.204C60.6686 301.943 63.1023 302.987 66.2314 302.987Z" fill="#343536"/>
<path d="M117.166 291.331C117.166 294.811 116.471 297.768 115.08 300.377C113.689 302.987 111.777 304.901 109.343 306.292C106.91 307.684 103.954 308.38 100.478 308.38C95.2624 308.38 91.2641 306.814 88.3088 303.857C85.3536 300.899 83.9629 296.724 83.9629 291.331C83.9629 286.112 85.3536 281.937 88.3088 278.98C91.2641 276.022 95.2624 274.631 100.478 274.631C105.693 274.631 109.691 276.196 112.646 279.154C115.775 282.111 117.166 286.286 117.166 291.331ZM110.212 291.331C110.212 287.852 109.343 285.069 107.779 282.981C106.04 280.893 103.78 280.024 100.651 280.024C97.5223 280.024 95.2624 281.067 93.524 282.981C91.7856 284.895 91.0903 287.678 91.0903 291.331C91.0903 294.985 91.9594 297.768 93.6978 299.856C95.4362 301.943 97.6961 302.987 100.651 302.987C103.78 302.987 106.04 301.943 107.779 300.03C109.343 297.942 110.212 295.159 110.212 291.331Z" fill="#343536"/>
<path d="M142.372 308.032L128.118 282.633C128.465 285.069 128.465 286.982 128.465 288.548V307.858H122.381V274.979H130.204L144.632 300.378C144.284 298.116 144.284 295.855 144.284 293.941V274.805H150.369V307.684H142.372V308.032Z" fill="#343536"/>
<path d="M171.577 280.545V308.032H164.797V280.545H154.193V275.153H182.181V280.545H171.577Z" fill="#343536"/>
<path d="M205.475 308.032L202.52 299.682H190.003L187.048 308.032H180.269L192.263 275.153H200.434L212.429 308.032H205.475ZM196.435 280.198L196.262 280.72C196.088 281.241 195.914 281.937 195.74 282.633C195.566 283.329 194.176 287.33 191.742 294.463H201.129L197.826 285.069L196.783 281.937L196.435 280.198Z" fill="#343536"/>
<path d="M216.774 308.032V275.153H223.554V308.032H216.774Z" fill="#343536"/>
<path d="M249.978 308.032L235.723 282.807C236.071 285.243 236.071 287.156 236.071 288.722V308.032H229.986V275.153H237.809L252.238 300.551C251.89 298.29 251.89 296.028 251.89 294.115V274.979H257.974V307.858H249.978V308.032Z" fill="#343536"/>
<path d="M264.406 308.032V275.153H290.134V280.546H271.186V288.722H288.744V294.115H271.186V302.813H291.003V308.206H264.406V308.032Z" fill="#343536"/>
<path d="M318.818 308.032L311.169 295.507H303.172V308.032H296.393V275.153H312.733C316.558 275.153 319.687 276.023 321.773 277.762C323.859 279.502 324.902 281.937 324.902 285.069C324.902 287.33 324.207 289.418 322.99 290.983C321.773 292.723 319.861 293.767 317.775 294.289L326.64 308.032H318.818ZM317.949 285.243C317.949 282.111 315.862 280.546 311.864 280.546H302.998V290.288H312.038C313.95 290.288 315.341 289.94 316.384 289.07C317.427 288.2 317.949 286.808 317.949 285.243Z" fill="#343536"/>
<path d="M301.261 333.431C301.261 335.692 300.392 337.432 298.827 338.65C297.089 339.867 294.655 340.389 291.526 340.389C288.571 340.389 286.311 339.867 284.572 338.824C282.834 337.78 281.791 336.214 281.27 334.127L285.963 333.431C286.311 334.648 286.832 335.518 287.875 336.04C288.745 336.562 290.135 336.91 291.7 336.91C295.003 336.91 296.741 335.866 296.741 333.779C296.741 333.083 296.567 332.561 296.22 332.213C295.872 331.865 295.35 331.517 294.655 331.169C293.96 330.821 292.569 330.473 290.657 330.125C288.918 329.777 287.702 329.43 287.006 329.082C286.311 328.908 285.789 328.56 285.094 328.212C284.572 327.864 284.051 327.516 283.703 326.994C283.356 326.472 283.008 325.95 282.834 325.254C282.66 324.559 282.486 323.863 282.486 322.993C282.486 320.905 283.356 319.34 284.92 318.122C286.485 317.078 288.745 316.382 291.7 316.382C294.481 316.382 296.741 316.904 298.132 317.774C299.523 318.644 300.566 320.209 300.913 322.297L296.22 322.993C296.046 321.949 295.524 321.253 294.829 320.731C294.134 320.209 293.091 320.035 291.7 320.035C288.745 320.035 287.354 320.905 287.354 322.819C287.354 323.341 287.528 323.863 287.875 324.211C288.223 324.559 288.571 324.906 289.266 325.254C289.961 325.602 291.178 325.776 292.917 326.298C295.177 326.82 296.741 327.168 297.61 327.516C298.48 327.864 299.349 328.386 299.87 328.908C300.392 329.43 300.913 330.125 301.087 330.821C301.087 331.691 301.261 332.387 301.261 333.431Z" fill="#20C4F4"/>
<path d="M309.431 325.95C310.126 324.559 310.822 323.689 311.691 322.993C312.56 322.297 313.777 322.123 314.994 322.123C316.906 322.123 318.297 322.645 319.34 323.863C320.383 325.081 320.904 326.646 320.904 328.908V340.215H316.384V330.299C316.384 327.168 315.341 325.602 313.255 325.602C312.212 325.602 311.169 326.124 310.474 326.994C309.779 328.038 309.431 329.256 309.431 330.647V340.215H304.737V315.86H309.431V322.471C309.605 323.515 309.431 324.733 309.431 325.95Z" fill="#20C4F4"/>
<path d="M325.425 319.166V315.686H329.945V319.166H325.425ZM325.425 340.041V322.297H329.945V340.041H325.425Z" fill="#20C4F4"/>
<path d="M351.5 331.169C351.5 334.127 350.979 336.388 349.762 337.954C348.545 339.52 346.98 340.389 344.72 340.389C343.503 340.389 342.46 340.042 341.417 339.52C340.548 338.998 339.853 338.128 339.331 337.258H339.157C339.157 337.606 339.331 338.65 339.331 340.215V347H334.638V326.298C334.638 324.559 334.638 323.341 334.464 322.297H338.984C338.984 322.471 339.157 322.819 339.157 323.515C339.157 324.037 339.157 324.733 339.157 325.255C340.201 322.993 342.113 321.949 344.894 321.949C346.98 321.949 348.545 322.819 349.762 324.385C350.979 325.95 351.5 328.212 351.5 331.169ZM346.806 331.169C346.806 327.168 345.59 325.255 343.156 325.255C341.939 325.255 341.07 325.776 340.374 326.82C339.679 327.864 339.331 329.43 339.331 331.343C339.331 333.257 339.679 334.823 340.374 335.866C341.07 336.91 341.939 337.432 343.156 337.432C345.59 337.258 346.806 335.17 346.806 331.169Z" fill="#20C4F4"/>
<path d="M253.63 146.419L212.952 145.027L252.587 106.581L294.482 108.321L253.63 146.419Z" fill="white"/>
<path d="M289.266 108.321L248.066 111.104V75.0935L289.788 77.1811L289.266 108.321Z" fill="#3069B3"/>
<path d="M208.779 114.584L246.676 76.4854L248.067 106.581L208.779 141.548V114.584Z" fill="#0089CF"/>
<path d="M249.632 102.754L261.453 90.9243L264.582 91.0983V119.976H249.632V102.754Z" fill="white"/>
<path d="M250.327 194.955L209.996 193.737L268.232 137.721L310.648 139.46L250.327 194.955Z" fill="#6D6E71"/>
<path d="M303.173 145.027L260.409 145.549L261.452 90.9243L303.347 93.1859L303.173 145.027Z" fill="#F58220"/>
<path d="M203.912 149.376L259.193 93.012L260.41 145.549L203.912 194.955V149.376Z" fill="#FAA61A"/>
<path d="M290.656 54.3918H287.701V104.668H290.656V54.3918Z" fill="#343536"/>
<path d="M291.699 53H286.832V69.1787H291.699V53Z" fill="#343536"/>
<path d="M289.294 57.0598L167.69 134.771L168.626 136.237L290.23 58.5259L289.294 57.0598Z" fill="#343536"/>
<path d="M290.535 55.18L289.019 56.0298L335.64 139.369L337.157 138.519L290.535 55.18Z" fill="#343536"/>
<path d="M287.268 53.2573L169.157 155.394L169.953 156.315L288.063 54.1787L287.268 53.2573Z" fill="#343536"/>
<path d="M199.565 155.813H149.326C140.634 155.813 133.681 162.772 133.681 171.47V232.009H199.565V193.041L164.45 204.871L199.565 178.95V155.813Z" fill="#343536"/>
<path d="M158.192 163.119H151.065L147.588 175.819H154.715L158.192 163.119Z" fill="white"/>
<path d="M170.534 163.119H163.406L159.93 175.819H167.057L170.534 163.119Z" fill="white"/>
<path d="M182.877 163.119H175.749L172.099 175.819H179.4L182.877 163.119Z" fill="white"/>
<path d="M117.166 235.663V176.167L128.639 162.771V231.661L117.166 235.663Z" fill="#343536"/>
<path d="M279.531 106.929L291.179 99.9705L299.523 103.276L291.352 172.862L252.586 243.317L244.242 238.446V212.699L279.531 106.929Z" fill="white"/>
<path d="M289.266 101.188C289.266 101.188 287.528 135.111 281.965 162.772C269.796 223.137 238.679 262.279 238.679 262.279H110.213L110.908 242.795L204.433 184.169C210.691 180.168 215.037 173.731 216.254 166.425L218.34 153.726C219.557 146.071 224.251 139.46 230.857 135.459L289.266 101.188Z" fill="#343536"/>
<path d="M294.308 101.188C294.308 101.188 343.678 117.541 337.941 146.245C332.205 174.949 238.68 262.279 238.68 262.279C292.57 186.779 294.308 101.188 294.308 101.188Z" fill="#343536"/>
<path d="M276.401 142.244C276.401 144.331 274.663 145.897 272.751 145.897H260.93V128.849C260.93 126.761 262.668 125.195 264.58 125.195H272.577C274.663 125.195 276.227 126.935 276.227 128.849V142.244H276.401Z" fill="white"/>
<path d="M273.62 149.376H258.148V128.5H269.969C272.055 128.5 273.62 130.24 273.62 132.154V149.376Z" fill="#343536"/>
<path d="M300.391 142.07C300.391 144.157 302.129 145.723 304.041 145.723H315.862V128.674C315.862 126.587 314.124 125.021 312.212 125.021H304.041C301.955 125.021 300.391 126.761 300.391 128.674V142.07Z" fill="white"/>
<path d="M303.172 149.376H318.643V128.5H306.822C304.736 128.5 303.172 130.24 303.172 132.154V149.376Z" fill="#343536"/>
<path d="M169.492 135.459H166.537V157.031H169.492V135.459Z" fill="#343536"/>
<path d="M170.535 131.98H165.668V138.938H170.535V131.98Z" fill="#343536"/>
<path d="M167.58 141.548H161.67V157.031H167.58V141.548Z" fill="#343536"/>
<path d="M155.237 121.716H152.282V157.205H155.237V121.716Z" fill="#343536"/>
<path d="M156.281 118.237H151.413V135.633H156.281V118.237Z" fill="#343536"/>
</svg>
