<svg width="400" height="400" viewBox="0 0 400 400" fill="none" xmlns="http://www.w3.org/2000/svg">
<path d="M260.881 215.987C260.661 215.987 260.441 215.987 260.265 215.943C260.485 215.987 260.705 215.987 260.837 216.251C260.881 216.163 260.969 216.031 261.013 215.987C260.925 215.987 260.881 215.987 260.881 215.987Z" fill="black"/>
<path d="M180.939 278.453C180.851 278.409 180.719 278.365 180.631 278.276C180.675 278.365 180.807 278.453 180.939 278.453C180.895 278.453 180.895 278.453 180.939 278.453Z" fill="black"/>
<path d="M134.806 235.092V235.136C134.894 235.092 134.938 235.048 134.806 235.092Z" fill="black"/>
<path d="M247.41 150.66C247.454 150.616 247.454 150.616 247.498 150.572C247.454 150.616 247.454 150.616 247.41 150.66Z" fill="black"/>
<path d="M136.566 270.793C136.39 270.881 136.214 270.925 136.038 270.925C136.214 270.969 136.39 270.925 136.566 270.793Z" fill="black"/>
<path d="M281.791 258.291C281.967 258.203 282.143 258.071 282.275 257.807C282.099 257.983 281.923 258.159 281.791 258.291Z" fill="black"/>
<path d="M284.916 175.488C284.916 175.532 284.916 175.576 284.916 175.62C285.004 175.576 285.048 175.444 284.916 175.488Z" fill="black"/>
<path d="M357.991 172.186C357.067 171.922 356.187 171.614 355.262 171.35C353.545 170.866 351.829 170.381 350.112 169.897C347.603 169.193 345.093 168.489 342.584 167.784C339.547 167.124 336.597 166.199 333.648 165.187C332.459 165.187 331.359 164.791 330.258 164.307C328.145 163.954 326.076 163.426 324.095 162.546C321.542 162.238 319.121 161.225 316.656 160.653C312.21 159.376 307.808 158.1 303.362 156.823C301.249 156.427 299.224 155.855 297.243 155.106C294.998 154.71 292.797 154.05 290.64 153.257C288.923 153.037 287.25 152.641 285.665 151.937C285.093 151.981 284.521 151.893 284.036 151.541C281.791 151.144 279.546 150.572 277.389 149.824C275.012 149.207 272.679 148.635 270.302 148.019C267 147.359 263.787 146.434 260.573 145.378C259.693 145.466 258.857 145.113 258.02 144.849C255.335 144.145 252.694 143.441 250.008 142.736C248.115 142.252 246.267 141.768 244.374 141.284C242.173 140.711 239.972 140.139 237.726 139.567C237.066 139.787 236.626 139.171 236.01 139.127C233.941 138.554 231.872 138.026 229.759 137.454C227.998 137.014 226.281 136.529 224.52 136.089C222.407 135.693 220.338 135.209 218.357 134.416C215.54 133.976 212.811 133.184 210.125 132.259C210.081 132.259 209.993 132.215 209.949 132.171C208.144 131.995 206.428 131.511 204.711 130.851C202.466 130.499 200.221 129.97 198.108 129.134C193.574 128.298 189.216 126.889 184.813 125.612L184.637 125.656L184.461 125.568C182.744 125.392 181.116 124.908 179.531 124.292C178.915 124.248 178.298 124.292 177.77 123.851C175.525 123.455 173.324 122.927 171.211 122.091C168.79 121.738 166.457 121.122 164.168 120.33C162.231 119.846 160.294 119.537 158.533 120.902C157.565 122.267 157.432 123.851 157.432 125.48C157.521 131.555 157.476 137.63 157.476 143.705C157.476 144.277 157.609 144.893 157.124 145.378C155.055 145.686 153.25 144.717 151.358 144.145C148.936 143.837 146.603 143.089 144.27 142.384C142.377 141.9 140.528 141.416 138.636 140.932C137.227 140.623 135.818 140.447 134.542 139.787C133.221 139.567 131.9 139.391 130.712 138.819C128.467 138.378 126.222 137.938 124.065 137.102C122.304 136.794 120.543 136.397 118.826 135.737C116.713 135.385 114.644 134.901 112.663 134.108C109.802 133.624 106.985 132.876 104.211 131.951C104.079 131.907 103.947 131.863 103.815 131.819C101.922 131.643 100.293 132.083 99.0168 133.58C98.4005 135.121 98.6206 136.794 98.5326 138.378C98.5326 140.755 98.5326 143.089 98.4885 145.466C98.4885 147.667 98.4885 149.824 98.4885 152.025C98.4885 153.477 98.4005 154.93 98.5766 156.383C98.7527 158.012 97.8723 158.056 96.7717 157.747C94.9669 157.263 93.206 156.647 91.4012 156.075C89.2001 155.502 86.9991 154.93 84.8421 154.358C83.0372 154.05 81.2764 153.654 79.6036 152.949C78.6792 153.037 77.8428 152.773 77.0504 152.421C75.8178 151.893 74.4972 151.497 73.1766 151.1C70.6233 150.792 68.1582 150 65.737 149.207C63.58 148.855 61.511 148.283 59.442 147.579C56.6247 147.05 53.8074 146.302 51.1221 145.334C49.3172 145.158 47.5564 144.673 45.8396 144.101C43.2424 143.221 41.3055 144.233 39.7207 146.214C39.7207 178.217 39.7207 210.176 39.7207 242.179C40.8652 244.248 42.406 245.789 45.0032 245.789C45.3554 245.745 45.6635 245.833 45.8836 246.141C48.3048 246.449 50.5939 247.198 52.927 247.99C55.6563 248.518 58.2975 249.223 60.8947 250.103C61.5991 250.279 62.3034 250.455 63.0077 250.631C64.3724 251.028 65.737 251.424 67.0577 251.82C69.1707 252.216 71.1956 252.744 73.2206 253.537C75.5977 253.933 77.9308 254.593 80.2199 255.386C84.4899 256.486 88.7599 257.499 92.9419 258.951C95.231 259.26 97.388 259.964 99.5891 260.668C101.79 261.285 103.947 261.901 106.148 262.517C106.676 262.473 107.117 262.605 107.513 262.869C109.054 263.133 110.594 263.53 112.047 264.146C112.135 264.102 112.223 264.102 112.311 264.19C114.424 264.586 116.493 265.026 118.474 265.907C120.895 266.435 123.404 266.655 125.561 268.064C127.498 268.372 129.479 268.416 131.284 269.34C133.001 270.001 134.894 269.957 136.523 270.793C137.667 270.793 138.724 271.101 139.692 271.585C141.937 272.158 144.358 272.334 146.295 273.83C148.496 273.566 150.477 274.359 152.502 275.107C155.231 275.591 157.873 276.384 160.514 277.352C162.275 277.572 163.992 277.968 165.62 278.717C167.689 279.157 169.758 279.641 171.783 280.081C174.116 279.509 176.405 278.805 178.827 278.717C179.355 278.321 179.971 278.233 180.587 278.321C180.675 278.233 180.808 278.189 180.94 278.233C182.26 277.792 183.581 277.484 184.99 277.396C185.21 277.396 185.386 277.352 185.606 277.352C189.744 276.296 193.926 275.283 198.196 274.711C200.177 273.918 202.334 273.874 204.403 273.434C206.692 272.686 209.025 272.246 211.402 271.982C215.628 270.925 219.854 269.913 224.168 269.384C226.281 268.636 228.438 268.284 230.639 267.976C233.324 267.403 236.01 266.875 238.695 266.303C240.28 265.995 241.864 265.687 243.449 265.334C244.682 265.07 245.87 264.85 247.103 264.586C247.367 264.542 247.587 264.498 247.851 264.454C248.512 264.19 249.128 263.882 249.832 264.234C250.052 264.058 250.228 264.014 250.449 264.014C252.782 263.133 255.247 262.913 257.668 262.429C259.385 262.077 261.102 261.725 262.818 261.417C265.46 260.668 268.145 260.184 270.874 259.788C273.207 259.216 275.496 258.599 277.918 258.423C279.282 257.543 280.867 258.247 282.276 257.763C282.496 257.014 283.068 257.059 283.64 257.147C283.948 257.147 284.213 257.147 284.521 257.147C286.59 256.706 288.615 256.222 290.684 255.782C292.973 255.122 295.306 254.549 297.727 254.373C299.664 253.977 301.557 253.581 303.494 253.185C305.607 252.436 307.808 252.128 310.009 251.776C312.21 251.204 314.411 250.631 316.656 250.499C320.882 249.619 325.152 248.739 329.378 247.858C330.655 247.374 332.019 247.154 333.384 247.066C333.648 247.022 333.868 246.978 334.132 246.934C334.836 246.538 335.629 246.405 336.465 246.538C338.402 245.701 340.515 245.525 342.584 245.217C344.389 244.821 346.194 244.425 347.955 244.028C348.219 243.984 348.483 243.984 348.747 243.94C351.432 243.412 354.074 242.84 356.759 242.312C359.62 241.123 360.237 240.243 360.237 237.205C360.237 217.132 360.237 197.014 360.281 176.941C360.237 174.872 359.708 173.287 357.991 172.186ZM165.18 269.913C162.935 269.516 160.734 268.9 158.577 268.108C156.464 267.712 154.395 267.227 152.414 266.391C149.817 266.039 147.308 265.202 144.843 264.322C144.71 264.322 144.578 264.234 144.402 264.19C142.157 263.838 139.956 263.309 137.887 262.429C132.913 261.461 133.969 261.989 134.013 257.543C134.013 255.342 134.013 253.185 134.013 250.984C134.013 248.607 134.013 246.273 134.013 243.896C134.013 241.871 134.013 239.802 134.013 237.777C134.013 235.708 134.013 233.683 134.013 231.614C134.013 231.306 134.013 230.998 134.013 230.734C134.013 228.841 134.013 226.904 134.013 225.011C134.013 223.118 134.057 221.182 134.057 219.289C133.573 219.024 133.089 218.716 132.605 218.452C130.36 218.144 128.159 217.484 126.046 216.691C123.624 216.471 121.335 215.635 119.002 214.887C116.757 214.49 114.512 213.962 112.355 213.17C110.462 212.685 108.569 212.245 106.676 211.761C106.324 211.805 106.016 211.761 105.752 211.453C103.375 211.013 100.998 210.44 98.7527 209.56C96.4636 209.208 94.2625 208.636 92.0615 207.887C90.3007 207.447 88.5838 206.963 86.823 206.523C84.71 206.082 82.597 205.598 80.528 204.806C80.2639 204.762 80.0438 204.762 79.7797 204.718C77.7547 204.278 75.7738 203.837 73.7488 203.397C73.6608 203.309 73.5287 203.265 73.3967 203.265C73.5287 203.309 73.6608 203.353 73.7488 203.397C72.5603 203.573 71.3277 203.749 70.1391 203.881C70.0951 210.749 70.0511 217.66 70.0511 224.527C70.0511 230.47 70.0951 236.413 70.0511 242.356C70.0511 242.884 70.4032 243.544 69.6109 243.896C68.3783 243.808 67.2337 243.412 66.0892 242.972C64.2403 242.532 62.3914 242.223 60.6746 241.387C59.9263 241.299 59.1779 241.255 58.5616 240.859C55.4361 240.243 52.3547 239.318 49.3613 238.262C47.4684 238.438 47.6885 237.117 47.6885 235.929C47.6885 226.332 47.6885 216.735 47.6885 207.139C47.6885 189.927 47.6885 172.715 47.6885 155.502C47.6885 154.754 47.2923 153.874 48.0406 153.257C49.8895 153.389 51.6063 153.962 53.2791 154.578C55.5682 154.93 57.7693 155.546 59.9263 156.251C64.0202 157.307 68.1142 158.364 72.2081 159.42C74.8493 160.125 77.5346 160.829 80.1759 161.533C82.0688 162.017 83.9176 162.502 85.8105 162.986C87.7475 163.47 89.7724 163.734 91.6213 164.615C92.2376 164.659 92.8539 164.659 93.3821 165.011C95.319 165.319 97.2119 165.803 99.0608 166.464C101.262 167.036 103.463 167.608 105.664 168.18C106.632 168.268 107.601 168.489 108.481 168.929C109.318 169.149 110.11 169.325 110.946 169.545C111.255 169.633 111.563 169.765 111.827 169.853C114.82 170.293 117.726 171.13 120.631 172.098C122.304 172.362 123.933 172.715 125.473 173.375C127.894 173.727 130.228 174.475 132.517 175.136C134.41 175.62 136.302 176.104 138.195 176.544C139.384 176.853 140.661 176.985 141.761 177.645C143.082 177.909 144.446 177.997 145.679 178.657C146.339 178.569 146.956 178.701 147.484 179.054C148.276 179.098 149.113 179.142 149.685 179.89C150.609 179.846 151.534 179.758 152.37 180.33C154.263 180.814 156.112 181.299 158.005 181.739C160.69 182.443 163.375 183.147 166.017 183.852C166.941 183.852 167.557 184.116 167.205 185.216C167.205 185.349 167.205 185.525 167.205 185.657C167.205 187.55 167.205 189.487 167.205 191.379C167.381 193.58 167.425 195.781 167.205 197.983C167.205 200.184 167.205 202.385 167.205 204.586C167.381 206.787 167.381 208.988 167.205 211.189C167.205 213.39 167.205 215.591 167.205 217.792C167.381 219.993 167.381 222.194 167.205 224.395C167.205 226.596 167.205 228.797 167.205 230.998C167.381 233.199 167.425 235.4 167.205 237.601C167.205 239.802 167.205 242.003 167.205 244.204C167.381 246.405 167.425 248.607 167.205 250.808C167.205 253.009 167.205 255.21 167.205 257.411C167.205 259.612 167.205 261.813 167.205 264.014C167.249 265.466 167.161 266.919 167.337 268.328C167.733 270.705 166.809 270.793 165.18 269.913ZM220.911 246.758C220.911 247.242 220.867 247.77 220.646 248.254C219.854 248.783 218.974 248.827 218.093 248.827C215.892 249.443 213.691 249.927 211.446 250.147C209.905 250.675 208.365 251.028 206.736 251.028C206.56 251.116 206.384 251.16 206.208 251.16C203.61 251.908 200.925 252.48 198.24 252.744C197.535 253.185 197.095 253.009 197.051 252.172C197.007 249.311 197.051 246.449 197.051 243.588C197.051 242.84 197.491 242.576 198.196 242.62C199.869 242.003 201.585 241.827 203.346 241.607C206.164 241.079 209.025 240.507 211.842 239.978C213.735 239.626 215.584 239.318 217.477 238.966C218.181 238.57 218.974 238.614 219.766 238.614C220.294 238.526 220.867 238.482 220.867 239.23C220.734 241.739 221.175 244.248 220.911 246.758ZM220.646 223.647C219.854 224.131 218.974 224.175 218.093 224.175C217.037 224.439 215.98 224.659 214.924 224.923C213.471 225.187 211.974 225.452 210.522 225.716C208.761 226.156 207.044 226.64 205.239 226.728C202.95 227.432 200.617 227.917 198.24 228.137C197.976 228.445 197.668 228.533 197.315 228.225C196.699 225.099 197.007 221.93 196.963 218.804C196.963 218.32 197.271 218.012 197.8 218.056C197.932 218.012 198.064 218.012 198.196 218.056C198.9 217.704 199.648 217.484 200.441 217.572C201.453 217.396 202.422 217.22 203.434 217.044C204.007 216.603 204.667 216.603 205.327 216.735C205.591 216.691 205.811 216.647 206.076 216.647C208.012 216.251 209.949 215.855 211.93 215.415C213.779 215.063 215.672 214.754 217.521 214.402C217.653 214.358 217.785 214.226 217.917 214.226C220.999 213.61 221.043 213.61 220.999 216.779C220.867 219.024 221.439 221.358 220.646 223.647ZM226.325 178.305C226.325 180.506 226.325 182.707 226.325 184.952C226.369 186.625 226.281 188.342 226.413 190.015C226.589 191.996 225.973 192.612 224.124 191.6C221.923 190.983 219.722 190.411 217.521 189.795C215.496 189.222 213.427 188.606 211.402 188.034C210.874 188.078 210.39 187.946 209.993 187.638C207.88 187.285 205.811 186.669 203.786 185.921C203.082 185.745 202.422 185.569 201.717 185.393C200.221 184.952 198.768 184.512 197.271 184.116C195.687 183.676 194.058 183.236 192.473 182.795C189.92 182.223 187.411 181.563 184.99 180.594C182.744 180.242 180.543 179.538 178.386 178.789C176.185 178.173 173.984 177.601 171.783 176.985C169.274 176.412 166.765 175.796 164.3 175.224C162.407 174.651 160.514 174.079 158.577 173.507C156.42 173.155 154.351 172.627 152.326 171.834C152.194 171.834 152.106 171.834 151.974 171.746C149.729 171.394 147.528 170.822 145.371 170.029C143.126 169.633 140.881 169.105 138.724 168.312C136.479 167.96 134.277 167.344 132.12 166.552C130.624 166.464 129.215 165.935 127.762 165.495C126.838 165.231 125.958 164.967 125.033 164.747C123.14 164.263 121.247 163.822 119.398 163.338C116.757 162.634 114.072 161.929 111.431 161.225C110.11 160.873 108.833 160.565 107.513 160.213C106.456 160.169 106.72 159.376 106.72 158.76C106.72 153.433 106.72 148.063 106.808 142.736C106.808 142.252 106.148 141.152 107.557 141.284C109.406 141.416 111.167 141.988 112.927 142.604C116.229 143.265 119.486 144.189 122.7 145.246C123.58 145.158 124.373 145.466 125.121 145.774C127.806 146.478 130.492 147.182 133.177 147.887C135.026 148.371 136.919 148.855 138.768 149.339C140.969 149.912 143.17 150.484 145.371 151.056C146.515 150.924 147.396 151.805 148.452 151.937C149.553 151.981 150.565 152.245 151.534 152.773C153.955 153.081 156.288 153.742 158.577 154.534C160.822 154.93 163.067 155.458 165.224 156.295C169.67 157.219 174.072 158.408 178.43 159.728C180.852 160.125 183.229 160.741 185.518 161.533C187.543 162.062 189.524 162.546 191.549 163.074C192.341 163.294 193.089 163.558 193.882 163.778C194.146 163.954 194.41 164.13 194.674 164.307C196.259 163.998 197.668 164.659 199.076 165.099C201.321 165.539 203.566 166.023 205.767 166.816C207.66 167.3 209.509 167.784 211.402 168.268C213.603 168.841 215.804 169.413 218.005 169.985C219.942 170.469 222.011 170.558 223.728 171.702C225.797 171.438 226.677 172.274 226.413 174.387C226.237 175.708 226.325 177.029 226.325 178.305ZM275.849 237.821C272.327 238.702 268.805 239.538 265.24 240.022C262.554 240.551 259.869 241.123 257.228 241.651C251.153 242.928 252.297 243.676 252.385 237.513C252.385 237.425 252.429 237.381 252.429 237.293C252.385 236.765 252.297 236.281 252.297 235.752C252.253 232.451 252.253 232.451 255.643 231.923C256.479 231.791 257.184 231.086 258.108 231.218C258.636 231.174 259.209 231.13 259.737 231.086C263.523 230.162 267.353 229.281 271.226 228.885C271.491 228.797 271.755 228.621 272.019 228.577C276.245 227.961 276.245 226.64 276.069 232.011C275.981 233.992 276.377 235.929 275.849 237.821ZM274.22 213.742C272.943 213.874 271.667 214.182 270.346 214.402C268.629 214.71 266.912 215.063 265.196 215.371C264.491 215.899 263.699 215.723 262.906 215.767C262.246 216.207 261.498 216.163 260.793 216.207C259.781 216.735 258.68 216.779 257.58 216.956C252.165 218.232 252.165 218.232 252.209 212.641C252.209 212.069 252.297 211.497 252.341 210.881C252.209 207.535 250.889 207.579 257.184 206.919C259.473 206.17 261.85 205.818 264.227 205.554C266.164 205.158 268.057 204.762 269.994 204.366C270.39 204.322 270.83 204.278 271.226 204.233C272.415 203.969 273.603 203.661 274.792 203.397C275.893 203.177 276.245 203.661 276.069 204.718C276.069 206.963 276.025 209.208 276.157 211.453C276.201 212.95 275.716 213.61 274.22 213.742ZM283.64 179.714C282.188 179.142 280.647 178.789 279.15 178.305C278.534 178.349 277.962 178.129 277.389 177.821C274.88 177.117 272.327 176.412 269.818 175.708C267.749 175.224 265.68 174.784 263.743 173.903C261.454 173.595 259.297 172.847 257.14 172.142C256.655 172.142 256.127 172.274 255.775 171.79C254.19 171.306 252.606 170.822 251.021 170.337C248.424 169.853 245.914 169.105 243.449 168.268C241.248 167.652 239.047 167.036 236.846 166.42C235.569 166.067 234.293 165.759 232.972 165.407C232.224 165.187 231.432 164.923 230.683 164.703C228.79 164.219 226.941 163.734 225.048 163.294C224.124 163.03 223.2 162.766 222.275 162.502C220.955 162.37 219.678 161.973 218.445 161.533C217.917 161.577 217.433 161.533 217.037 161.181C213.779 160.301 210.478 159.42 207.22 158.54C206.384 158.584 205.547 158.408 204.799 158.012C202.598 157.439 200.397 156.867 198.196 156.295C195.951 155.855 193.75 155.326 191.593 154.578C189.48 154.27 187.411 153.742 185.43 152.949C184.813 152.861 184.153 152.993 183.625 152.465C181.776 152.421 180.059 151.717 178.342 151.144C175.965 150.748 173.632 150.132 171.343 149.339C170.199 149.075 169.098 148.723 167.953 148.635C165.84 148.459 165.224 147.359 165.664 145.422C165.664 143.221 165.664 141.02 165.664 138.863C165.664 136.661 165.664 134.46 165.664 132.259C165.488 129.222 165.532 129.178 168.35 129.97C171.035 130.719 173.676 131.467 176.361 132.259C177.11 132.215 177.814 132.303 178.43 132.744C180.719 133.14 182.921 133.712 185.078 134.46C187.323 134.901 189.524 135.385 191.681 136.177C193.926 136.529 196.127 137.102 198.284 137.894C199.164 138.07 200.001 138.29 200.881 138.466C202.378 138.863 203.874 139.303 205.371 139.699C207.616 140.095 209.817 140.623 211.93 141.46C212.591 141.416 213.207 141.504 213.735 141.9C215.144 142.032 216.42 142.56 217.653 143.309C219.106 142.956 220.426 143.485 221.747 143.837C224.784 144.629 227.822 145.51 230.859 146.302C233.545 147.006 236.23 147.711 238.915 148.415C240.764 148.899 242.657 149.384 244.506 149.868C245.606 149.956 246.619 150.22 247.587 150.704C248.115 150.66 248.6 150.704 248.996 151.056C249.7 151.232 250.405 151.408 251.109 151.585C253.222 151.937 255.335 152.465 257.316 153.301C259.737 153.61 262.026 154.27 264.315 155.062C265.416 155.194 266.516 155.37 267.529 155.899C267.661 155.855 267.749 155.899 267.837 155.987C268.937 156.031 269.994 156.383 271.006 156.779C272.899 157.263 274.748 157.703 276.641 158.188C276.993 158.276 277.301 158.408 277.653 158.496C279.854 158.936 282.056 159.42 284.213 160.257C284.345 160.213 284.477 160.257 284.609 160.345C285.753 160.433 285.445 161.313 285.445 161.973C285.489 163.206 285.445 164.395 285.401 165.627C285.401 167.52 285.401 169.413 285.401 171.35C285.401 173.683 285.401 176.06 285.401 178.393C285.577 179.802 285.269 180.374 283.64 179.714ZM325.812 203.837C325.24 203.837 324.668 203.881 324.095 203.925C322.731 204.586 321.278 204.806 319.781 204.806C316.876 205.598 313.971 206.302 310.933 206.611C309.172 207.007 307.411 207.447 305.651 207.799C305.034 207.931 304.418 207.931 304.418 207.051C304.462 203.969 303.89 200.844 304.682 197.762C306.663 196.926 308.776 196.838 310.845 196.442C312.738 196.134 314.587 195.781 316.48 195.473C317.052 195.121 317.712 195.077 318.329 195.121C318.593 195.077 318.813 195.033 319.077 195.033C320.398 194.549 321.762 194.241 323.171 194.241C324.888 193.933 326.517 192.788 328.365 193.757C328.365 196.09 328.189 198.423 328.409 200.712C328.674 202.825 327.881 203.749 325.812 203.837Z" fill="#00AEEF"/>
</svg>
