<svg width="400" height="400" viewBox="0 0 400 400" fill="none" xmlns="http://www.w3.org/2000/svg">
<path d="M25.2864 71.9408C25.2864 46.093 46.2721 25.0715 72.1557 25.0715C95.4652 25.1073 114.771 42.0889 118.417 64.3616C143.693 58.427 171.364 65.3269 191.098 85.0255L193.78 87.7426L159.209 122.314L156.527 119.632C145.302 108.407 127.105 108.407 115.879 119.632C104.617 130.894 104.617 149.127 115.807 160.317L122.564 167.074L157.135 201.645L193.708 238.218L159.137 272.824L122.6 236.216L87.9933 201.645L81.2364 194.888C60.3222 173.973 53.887 144.122 61.788 117.666C40.9095 112.947 25.2864 94.285 25.2864 71.9408ZM126.676 162.962L161.247 197.533L197.855 160.996L232.426 126.425L239.183 119.668C250.445 108.407 268.606 108.407 279.796 119.597C291.022 130.822 291.022 149.019 279.796 160.245L277.115 162.926L311.686 197.497L314.367 194.78C335.031 174.081 341.609 144.622 334.066 118.345C357.054 115.342 374.75 95.6793 374.75 71.8693C374.75 45.9857 353.764 25 327.881 25C304.178 25 284.587 42.5894 281.441 65.3984C255.092 57.6762 225.383 64.2186 204.577 84.9898L197.891 91.8182L163.284 126.389L126.676 162.962ZM334.924 281.726C341.144 256.272 334.245 228.279 314.367 208.401L307.574 201.609L273.003 167.038L236.538 130.501L201.931 165.072L238.433 201.645L273.003 236.216L279.76 242.972C291.022 254.234 291.022 272.395 279.832 283.585C268.606 294.811 250.409 294.811 239.183 283.585L236.502 280.94L201.931 315.546L204.577 318.192C225.634 339.213 255.772 345.649 282.37 337.497C286.696 358.912 305.608 375 328.274 375C354.158 375 375.143 354.014 375.143 328.131C375.215 304.499 357.733 284.944 334.924 281.726ZM268.928 240.327L234.357 205.72L197.855 242.293L163.284 276.864L156.527 283.621C145.338 294.847 127.105 294.847 115.843 283.585C104.617 272.36 104.617 254.162 115.843 242.937L118.524 240.291L83.9177 205.72L81.2721 208.33C61.1802 228.422 54.3876 256.808 60.9299 282.477C40.2303 287.375 24.8574 305.929 24.8574 328.131C24.8574 354.014 45.8431 375 71.7267 375C93.9994 374.964 112.626 359.484 117.416 338.641C142.978 344.969 171.15 338.212 191.098 318.228L197.855 311.435L232.426 276.828L268.928 240.327Z" fill="black"/>
</svg>
