<svg width="400" height="400" viewBox="0 0 400 400" fill="none" xmlns="http://www.w3.org/2000/svg">
<path d="M360.705 126.089C357.841 119.217 354.401 113.773 350.388 109.763L290.231 49.6057C286.224 45.5985 280.78 42.1595 273.905 39.2932C267.033 36.4298 260.73 34.9978 255.001 34.9978H55.6235C49.8961 34.9978 45.025 37.0018 41.0141 41.0127C37.0032 45.0213 35 49.8916 35 55.622V344.377C35 350.109 37.0032 354.98 41.0141 358.989C45.025 362.996 49.8961 365.002 55.6235 365.002H344.378C350.111 365.002 354.98 362.996 358.99 358.989C362.997 354.98 365 350.109 365 344.377V144.999C365 139.268 363.569 132.967 360.705 126.089ZM172.501 69.3705C172.501 67.5088 173.183 65.9007 174.544 64.5371C175.904 63.1796 177.516 62.4993 179.377 62.4993H220.629C222.487 62.4993 224.098 63.1781 225.458 64.5371C226.823 65.9007 227.503 67.5088 227.503 69.3705V138.122C227.503 139.987 226.818 141.597 225.458 142.958C224.098 144.315 222.487 144.996 220.629 144.996H179.377C177.516 144.996 175.903 144.318 174.544 142.958C173.183 141.595 172.501 139.987 172.501 138.122V69.3705V69.3705ZM282.505 337.503H117.498V255H282.505V337.503ZM337.51 337.503H310.004H309.998V248.124C309.998 242.392 307.995 237.525 303.985 233.513C299.976 229.503 295.105 227.497 289.379 227.497H110.624C104.895 227.497 100.024 229.503 96.0126 233.513C92.004 237.522 89.9985 242.392 89.9985 248.124V337.503H62.4977V62.4963H89.9977V151.874C89.9977 157.604 92.0009 162.472 96.0119 166.483C100.023 170.492 104.894 172.498 110.623 172.498H234.38C240.106 172.498 244.982 170.492 248.986 166.483C252.993 162.474 255.001 157.604 255.001 151.874V62.4963C257.149 62.4963 259.94 63.2112 263.382 64.6432C266.822 66.0745 269.256 67.5066 270.688 68.9386L331.064 129.313C332.495 130.745 333.928 133.219 335.359 136.726C336.796 140.237 337.509 142.995 337.509 144.999V337.503H337.51Z" fill="black"/>
</svg>
