<svg width="400" height="400" viewBox="0 0 400 400" fill="none" xmlns="http://www.w3.org/2000/svg">
<g clip-path="url(#clip0)">
<path fill-rule="evenodd" clip-rule="evenodd" d="M114.349 236.655C79.4703 201.777 79.4703 145.227 114.349 110.349C149.228 75.4699 205.777 75.4699 240.656 110.349C275.518 145.211 275.534 201.723 240.705 236.606C240.689 236.622 240.672 236.639 240.656 236.655C240.639 236.671 240.623 236.688 240.607 236.704C205.724 271.534 149.211 271.518 114.349 236.655ZM249.391 263.898C204.053 300.046 137.813 297.134 95.8415 255.163C50.7415 210.063 50.7415 136.941 95.8415 91.8411C140.942 46.741 214.063 46.741 259.163 91.8411C301.134 133.812 304.046 200.052 267.899 245.39L326.501 303.992C331.611 309.103 331.611 317.389 326.501 322.5C321.39 327.61 313.104 327.61 307.993 322.5L249.391 263.898Z" fill="black"/>
</g>
<defs>
<clipPath id="clip0">
<rect width="400" height="400" fill="white"/>
</clipPath>
</defs>
</svg>
