<svg width="400" height="400" viewBox="0 0 400 400" fill="none" xmlns="http://www.w3.org/2000/svg">
<circle cx="200" cy="200" r="125" fill="#10A3F4"/>
<path fill-rule="evenodd" clip-rule="evenodd" d="M155.72 200.816C155.72 198.288 157.769 196.238 160.297 196.238H241.259C243.787 196.238 245.836 198.288 245.836 200.816C245.836 203.343 243.787 205.393 241.259 205.393H160.297C157.769 205.393 155.72 203.343 155.72 200.816Z" fill="white"/>
<path fill-rule="evenodd" clip-rule="evenodd" d="M155.72 242.796C155.72 240.268 157.769 238.218 160.297 238.218H241.259C243.787 238.218 245.836 240.268 245.836 242.796C245.836 245.323 243.787 247.373 241.259 247.373H160.297C157.769 247.373 155.72 245.323 155.72 242.796Z" fill="white"/>
<path fill-rule="evenodd" clip-rule="evenodd" d="M155.72 284.775C155.72 282.248 157.769 280.198 160.297 280.198H241.259C243.787 280.198 245.836 282.248 245.836 284.775C245.836 287.303 243.787 289.353 241.259 289.353H160.297C157.769 289.353 155.72 287.303 155.72 284.775Z" fill="white"/>
<path fill-rule="evenodd" clip-rule="evenodd" d="M133.669 305.968V163.792C133.669 162.983 134.325 162.327 135.134 162.327H264.868C265.677 162.327 266.333 162.983 266.333 163.792V305.967C269.874 303.746 273.296 301.353 276.586 298.798V163.792C276.586 157.32 271.34 152.074 264.868 152.074H135.134C128.662 152.074 123.416 157.32 123.416 163.792V298.799C126.707 301.354 130.128 303.747 133.669 305.968Z" fill="white"/>
</svg>
