<svg width="400" height="400" viewBox="0 0 400 400" fill="none" xmlns="http://www.w3.org/2000/svg">
<g clip-path="url(#clip0)">
<path d="M268.305 207.849C267.953 204.192 261.278 204.473 261.278 204.473L225.087 205.81C224.876 204.755 223.541 200.113 223.541 200.113C223.541 200.113 247.926 199.973 258.186 199.269C268.445 198.566 267.391 192.94 267.391 192.94C267.391 192.94 268.586 146.735 268.375 137.944C268.164 129.083 266.126 95.8186 265.283 88.9265C264.44 82.0345 264.44 73.314 257.553 70.7822C250.666 68.2505 243.358 66.6329 238.228 66.1407C233.098 65.6484 191.989 66.1407 175.264 69.0241C158.539 71.9075 148.912 74.2986 143.641 84.4256C138.371 94.5527 135.279 93.7088 135.279 93.7088C131.344 94.2714 118.203 97.5064 115.813 98.702C113.424 99.8975 109.629 104.328 108.646 108.266C107.662 112.205 110.543 111.642 110.543 111.642C105.202 122.472 103.726 137.804 103.726 137.804C100.634 138.648 97.5425 139.913 94.6613 141.32V125.215C94.6613 124.231 93.8181 123.387 92.8342 123.387H87.9854C87.0016 123.387 86.1583 124.231 86.1583 125.215V145.399C86.1583 145.54 86.1583 145.751 86.2286 145.891C81.5204 148.845 78.2878 151.306 78.2878 151.306C74.0012 155.104 71.1903 159.394 69.2227 163.614C71.9633 160.238 76.1094 158.55 89.9531 158.339C106.959 158.058 122.138 156.792 138.863 158.339C155.588 159.886 152.215 168.185 152.215 173.6C152.215 179.015 148.841 202.715 145.539 210.944C144.133 214.46 143.993 216.218 143.079 217.132C153.479 218.398 198.313 216.499 198.313 216.499C199.93 209.607 200.492 208.341 201.686 204.544C202.881 200.816 212.649 185.063 220.238 202.012C227.687 218.609 225.087 242.52 225.087 242.52C227.476 242.38 235.347 241.184 235.347 241.184C235.347 241.184 255.726 235.136 262.402 233.237C269.008 231.338 268.235 227.681 268.235 227.681C268.235 227.681 268.656 211.506 268.305 207.849ZM255.937 124.793C255.937 124.793 256.007 123.527 257.202 124.09C258.396 124.723 261.488 126.481 261.488 126.481C261.488 126.481 262.261 126.973 262.261 129.224C262.261 131.474 262.261 147.157 262.261 147.157C262.261 147.157 262.402 148.775 260.575 148.775C258.748 148.775 257.975 148.564 257.132 148.212C256.359 147.931 256.218 147.79 255.867 145.188C255.585 142.656 255.937 124.793 255.937 124.793ZM230.217 112.275C231.763 112.908 235.488 114.807 235.488 114.807C235.488 114.807 236.612 115.932 236.682 118.464C236.752 120.996 236.682 122.824 236.682 122.824H228.812V119.941V113.26C228.812 113.33 228.601 111.642 230.217 112.275ZM196.908 206.161C196.065 210.662 193.394 215.655 185.383 215.374C177.372 215.093 149.193 217.976 152.004 211.295C152.004 211.295 153.269 206.021 162.545 204.122C171.891 202.223 192.832 202.012 192.832 202.012C192.832 202.012 197.821 201.66 196.908 206.161ZM212.298 134.709C212.298 134.709 121.646 133.584 105.272 137.522C105.272 137.522 106.818 116.846 114.057 108.196C114.057 108.196 207.519 99.6865 222.206 105.242C222.206 105.172 214.757 126.973 212.298 134.709ZM218.692 148.564C217.638 136.256 219.325 129.786 222.698 119.308C226.001 108.829 227.758 111.501 227.758 111.501L227.195 137.522C227.195 154.541 218.692 148.564 218.692 148.564Z" fill="#010050"/>
<path d="M65.4983 184.29C60.3684 187.454 57.0656 194.346 55.0979 200.887C57.2061 200.887 64.3036 201.027 65.7091 204.122C67.3254 207.779 66.8335 212.139 64.4442 212.631C62.4063 213.053 54.606 212.42 52.4978 212.209C52.2168 214.038 52.1465 215.093 52.1465 215.093L71.4012 215.444C69.4335 213.264 66.6929 207.005 65.7794 189.353C65.7091 189.423 65.5685 187.314 65.4983 184.29Z" fill="#010050"/>
<path d="M270.834 138.015C271.045 146.876 269.851 193.01 269.851 193.01C269.851 193.01 270.132 194.487 269.078 195.964L278.354 196.175V71.8372L263.104 72.7514C266.899 76.4084 267.04 83.3004 267.672 88.9266C268.586 95.8889 270.624 129.154 270.834 138.015Z" fill="#010050"/>
<path d="M73.5087 211.858H83.1361C84.1199 211.858 84.9632 211.014 84.9632 210.029V169.451C84.9632 168.466 84.1199 167.622 83.1361 167.622H73.5087C72.5249 167.622 71.6816 168.466 71.6816 169.451V210.029C71.7519 211.014 72.5249 211.858 73.5087 211.858Z" fill="#010050"/>
<path d="M127.83 211.858H140.339C141.322 211.858 142.166 211.014 142.166 210.029V169.451C142.166 168.466 141.322 167.622 140.339 167.622H127.83C126.846 167.622 126.003 168.466 126.003 169.451V210.029C126.003 211.014 126.846 211.858 127.83 211.858Z" fill="#010050"/>
<path d="M88.6874 211.858H101.899C102.882 211.858 103.726 211.014 103.726 210.029V169.451C103.726 168.466 102.882 167.622 101.899 167.622H88.6874C87.7036 167.622 86.8604 168.466 86.8604 169.451V210.029C86.8604 211.014 87.7036 211.858 88.6874 211.858Z" fill="#010050"/>
<path d="M108.083 211.858H121.294C122.278 211.858 123.121 211.014 123.121 210.029V169.451C123.121 168.466 122.278 167.622 121.294 167.622H108.083C107.099 167.622 106.256 168.466 106.256 169.451V210.029C106.256 211.014 107.029 211.858 108.083 211.858Z" fill="#010050"/>
<path d="M172.172 220.86C167.885 220.86 105.694 219.453 86.9312 218.82C68.1684 218.187 50.4597 216.921 50.4597 216.921C49.6867 220.719 49.9678 242.45 49.9678 242.45C51.4435 243.364 57.7681 244.138 65.7089 244.771C67.9576 260.454 75.6173 272.058 84.7527 272.058C93.4665 272.058 100.915 261.438 103.515 246.74C105.272 246.81 106.256 246.81 106.256 246.81C106.256 246.81 161.982 248.428 169.923 248.428C177.864 248.428 183.697 247.443 183.697 247.443L197.54 246.67C196.275 233.308 198.383 218.891 198.383 218.891C196.908 219.102 176.458 220.86 172.172 220.86ZM72.1037 232.042L82.8554 232.534C83.9797 232.604 84.823 233.519 84.823 234.644L84.5419 240.411C84.4716 241.536 83.5581 242.38 82.4337 242.38L71.682 241.887C70.5577 241.817 69.7144 240.903 69.7144 239.778L69.9955 234.011C69.9955 232.886 70.9793 231.971 72.1037 232.042ZM63.6007 241.043L57.5572 240.692C56.5734 240.621 55.8004 239.778 55.8707 238.793L56.2221 232.956C56.2923 231.971 57.1356 231.198 58.1194 231.268L64.1629 231.62C65.1467 231.69 65.9197 232.534 65.8494 233.518L65.498 239.356C65.498 240.34 64.5845 241.114 63.6007 241.043ZM118.413 241.958C118.413 243.083 117.429 243.997 116.305 243.927L90.7962 243.224C89.6718 243.224 88.7583 242.239 88.8285 241.114L88.9691 234.925C88.9691 233.8 89.9529 232.886 91.0773 232.956L116.586 233.659C117.711 233.659 118.624 234.644 118.554 235.769L118.413 241.958ZM139.846 243.364C139.846 244.63 138.722 245.685 137.457 245.615L125.23 245.333C123.965 245.333 122.911 244.208 122.981 242.942L123.122 236.402C123.122 235.136 124.246 234.081 125.511 234.151L137.738 234.433C139.003 234.433 140.057 235.558 139.987 236.824L139.846 243.364ZM161.35 243.857C161.35 244.982 160.436 245.896 159.312 245.896H148.209C147.084 245.896 146.171 244.982 146.171 243.857V237.246C146.171 236.121 147.084 235.206 148.209 235.206H159.312C160.436 235.206 161.35 236.121 161.35 237.246V243.857Z" fill="#010050"/>
<path d="M211.384 198.355C204.919 198.355 199.648 214.882 199.648 235.206C199.648 255.531 204.919 272.057 211.384 272.057C217.849 272.057 223.119 255.531 223.119 235.206C223.119 214.811 217.849 198.355 211.384 198.355Z" fill="#010050"/>
<path d="M281.445 243.575C284.201 243.575 286.435 233.499 286.435 221.07C286.435 208.642 284.201 198.566 281.445 198.566C278.69 198.566 276.456 208.642 276.456 221.07C276.456 233.499 278.69 243.575 281.445 243.575Z" fill="#010050"/>
<path d="M292.759 198.074C290.3 198.074 288.262 207.146 288.262 218.328C288.262 229.51 290.3 238.582 292.759 238.582C295.219 238.582 297.257 229.51 297.257 218.328C297.257 207.146 295.219 198.074 292.759 198.074Z" fill="#010050"/>
<path d="M337.734 199.41C336.61 199.41 335.767 204.473 335.767 210.733C335.767 216.992 336.68 222.055 337.734 222.055C338.859 222.055 339.702 216.992 339.702 210.733C339.702 204.473 338.859 199.41 337.734 199.41Z" fill="#010050"/>
<path d="M341.81 199.41C341.177 199.41 340.686 204.051 340.686 209.818C340.686 215.585 341.177 220.227 341.81 220.227C342.442 220.227 342.934 215.585 342.934 209.818C342.934 204.051 342.442 199.41 341.81 199.41Z" fill="#010050"/>
<path d="M280.673 71.8372V196.105L351.156 198.566V138.999L280.673 71.8372Z" fill="#010050"/>
<path d="M300.279 216.499L334.22 209.185C334.22 209.185 334.08 207.708 334.291 206.091C334.431 204.966 334.642 203.348 334.642 203.348L299.225 204.544C299.857 208.271 300.279 216.499 300.279 216.499Z" fill="#010050"/>
<path d="M365 211.858C365 211.858 364.157 212.913 362.4 214.741C360.643 216.57 357.973 219.242 354.389 222.407C350.805 225.571 346.308 229.299 340.897 233.167C339.561 234.151 338.156 235.136 336.68 236.191C335.978 236.683 335.205 237.175 334.432 237.738C333.659 238.23 332.886 238.723 332.113 239.285C331.34 239.777 330.567 240.34 329.723 240.832C328.88 241.325 328.107 241.817 327.264 242.38C325.577 243.434 323.891 244.489 322.064 245.474C314.966 249.623 307.095 253.843 298.452 257.781C289.879 261.719 280.603 265.447 270.835 268.752C268.375 269.596 265.916 270.37 263.386 271.143C260.926 271.917 258.326 272.69 255.797 273.394C254.532 273.745 253.267 274.097 251.932 274.449C250.667 274.8 249.331 275.152 248.067 275.433C246.802 275.785 245.466 276.066 244.131 276.418C242.796 276.769 241.531 277.051 240.196 277.332C234.926 278.598 229.585 279.653 224.174 280.637C221.504 281.13 218.763 281.552 216.093 282.044C213.352 282.395 210.611 282.747 207.941 283.169C202.53 283.872 197.189 284.646 191.708 285.068C188.967 285.279 186.227 285.56 183.486 285.771C180.745 285.982 178.075 286.263 175.334 286.334C169.923 286.545 164.583 286.826 159.312 286.896C154.042 286.896 148.771 286.826 143.642 286.826C138.512 286.615 133.452 286.334 128.533 286.123C123.614 285.771 118.765 285.349 114.057 284.927C111.738 284.716 109.419 284.365 107.17 284.154C104.921 283.872 102.673 283.591 100.494 283.31C99.3698 283.169 98.3157 283.028 97.2616 282.817C96.2075 282.677 95.1534 282.466 94.0993 282.325C91.9912 281.973 89.9533 281.692 87.9154 281.341C85.8775 281.059 83.9098 280.637 82.0125 280.286C80.1151 279.934 78.2177 279.582 76.3907 279.231C72.7365 278.457 69.2931 277.613 66.0606 276.91C64.4443 276.558 62.8983 276.136 61.3523 275.785C59.8766 275.433 58.4009 275.011 56.9954 274.66C54.1845 273.886 51.6547 273.112 49.406 272.479C47.087 271.776 45.1194 271.143 43.2923 270.581C41.5355 269.948 40.0597 269.455 38.8651 269.033C36.4758 268.189 35.2109 267.627 35.2109 267.627C35.2109 267.627 35.5623 267.697 36.1948 267.908C36.8272 268.049 37.811 268.26 39.0057 268.611C40.2706 268.893 41.8166 269.244 43.5734 269.596C45.4005 269.948 47.4384 270.37 49.7574 270.862C52.0764 271.284 54.6764 271.776 57.4873 272.268C60.2982 272.69 63.32 273.253 66.6228 273.745C69.9256 274.167 73.3689 274.73 77.0231 275.222C80.6773 275.644 84.5423 276.207 88.6181 276.629C90.656 276.84 92.6939 277.051 94.8021 277.191C95.8562 277.262 96.9102 277.402 97.9643 277.473C99.0184 277.613 100.143 277.684 101.197 277.754C105.554 278.035 110.051 278.387 114.689 278.668C119.327 278.809 124.106 279.09 128.955 279.231C133.803 279.301 138.793 279.371 143.852 279.371C148.912 279.231 154.042 279.16 159.242 279.02C160.577 279.02 161.842 278.879 163.177 278.809C164.512 278.738 165.777 278.668 167.113 278.598C169.713 278.457 172.383 278.316 175.053 278.176C177.724 278.106 180.324 277.824 182.994 277.543C185.665 277.332 188.265 277.051 190.935 276.84C196.205 276.488 201.616 275.574 207.027 274.87C209.698 274.519 212.368 274.167 215.038 273.816C217.709 273.394 220.309 272.972 222.979 272.479C228.25 271.495 233.52 270.581 238.65 269.455C239.915 269.174 241.25 268.893 242.515 268.611C243.78 268.33 245.045 267.978 246.38 267.697C247.645 267.416 248.91 267.135 250.175 266.783C251.44 266.431 252.705 266.15 253.969 265.798C256.499 265.165 258.959 264.532 261.418 263.759C263.878 263.056 266.337 262.423 268.727 261.649C278.354 258.695 287.56 255.46 296.133 252.014C304.706 248.568 312.717 244.982 319.885 241.325C327.123 237.668 333.588 234.011 339.21 230.635C344.832 227.189 349.61 224.024 353.475 221.211C357.34 218.398 360.292 216.148 362.189 214.46C364.016 212.772 365 211.858 365 211.858Z" fill="#010050"/>
<path d="M141.152 308.205H129.301V341.075H124.464V308.205H112.637V304.203H141.152V308.205ZM160.146 326.159H151.485V341.075H146.597V304.203H158.804C162.957 304.203 166.148 305.149 168.376 307.04C170.622 308.931 171.744 311.682 171.744 315.295C171.744 317.591 171.12 319.592 169.87 321.297C168.638 323.002 166.916 324.277 164.704 325.121L173.365 340.772V341.075H168.148L160.146 326.159ZM151.485 322.184H158.955C161.37 322.184 163.286 321.559 164.704 320.31C166.139 319.06 166.857 317.389 166.857 315.295C166.857 313.016 166.173 311.269 164.805 310.053C163.455 308.838 161.496 308.221 158.93 308.205H151.485V322.184ZM204.539 304.203V329.274C204.522 332.752 203.425 335.597 201.247 337.809C199.086 340.02 196.148 341.261 192.434 341.531L191.143 341.582C187.108 341.582 183.891 340.493 181.494 338.315C179.097 336.137 177.881 333.141 177.847 329.325V304.203H182.659V329.173C182.659 331.841 183.393 333.917 184.862 335.403C186.331 336.872 188.424 337.606 191.143 337.606C193.895 337.606 195.996 336.872 197.448 335.403C198.917 333.934 199.652 331.866 199.652 329.198V304.203H204.539ZM239.335 329.376C238.879 333.276 237.435 336.289 235.004 338.416C232.59 340.527 229.374 341.582 225.356 341.582C221 341.582 217.505 340.02 214.871 336.897C212.255 333.774 210.946 329.595 210.946 324.361V320.816C210.946 317.389 211.554 314.375 212.77 311.775C214.002 309.175 215.741 307.183 217.986 305.799C220.232 304.397 222.832 303.697 225.786 303.697C229.703 303.697 232.843 304.794 235.207 306.989C237.57 309.167 238.946 312.189 239.335 316.055H234.447C234.025 313.117 233.105 310.99 231.687 309.673C230.285 308.356 228.319 307.698 225.786 307.698C222.68 307.698 220.24 308.846 218.467 311.142C216.712 313.438 215.834 316.705 215.834 320.943V324.513C215.834 328.515 216.669 331.697 218.341 334.061C220.012 336.424 222.351 337.606 225.356 337.606C228.057 337.606 230.125 336.998 231.56 335.783C233.012 334.55 233.974 332.415 234.447 329.376H239.335ZM255.365 323.931L250.857 328.616V341.075H245.995V304.203H250.857V322.437L267.242 304.203H273.117L258.606 320.487L274.257 341.075H268.432L255.365 323.931ZM120.564 398.1H138.038V402.075H115.676V365.203H120.564V398.1ZM170.275 384.83C170.275 388.443 169.668 391.6 168.452 394.301C167.236 396.985 165.514 399.037 163.286 400.455C161.057 401.873 158.457 402.582 155.486 402.582C152.582 402.582 150.008 401.873 147.762 400.455C145.517 399.02 143.769 396.985 142.52 394.352C141.288 391.701 140.654 388.637 140.621 385.159V382.5C140.621 378.954 141.237 375.823 142.469 373.104C143.702 370.386 145.441 368.31 147.686 366.875C149.948 365.423 152.532 364.697 155.435 364.697C158.39 364.697 160.99 365.414 163.235 366.849C165.498 368.268 167.236 370.336 168.452 373.054C169.668 375.755 170.275 378.904 170.275 382.5V384.83ZM165.438 382.449C165.438 378.076 164.561 374.725 162.805 372.395C161.049 370.049 158.592 368.875 155.435 368.875C152.363 368.875 149.94 370.049 148.167 372.395C146.412 374.725 145.508 377.967 145.458 382.12V384.83C145.458 389.067 146.344 392.402 148.117 394.833C149.906 397.247 152.363 398.454 155.486 398.454C158.626 398.454 161.057 397.314 162.779 395.035C164.501 392.739 165.388 389.456 165.438 385.184V382.449ZM204.792 397.239C203.543 399.028 201.796 400.37 199.55 401.265C197.322 402.143 194.722 402.582 191.75 402.582C188.745 402.582 186.078 401.881 183.748 400.48C181.418 399.062 179.612 397.053 178.329 394.453C177.062 391.853 176.412 388.839 176.379 385.412V382.196C176.379 376.641 177.67 372.336 180.253 369.281C182.853 366.225 186.5 364.697 191.193 364.697C195.043 364.697 198.141 365.684 200.487 367.66C202.834 369.618 204.269 372.404 204.792 376.017H199.93C199.018 371.138 196.115 368.698 191.219 368.698C187.96 368.698 185.487 369.846 183.799 372.142C182.127 374.421 181.283 377.73 181.266 382.069V385.083C181.266 389.219 182.212 392.511 184.102 394.959C185.993 397.39 188.551 398.606 191.776 398.606C193.599 398.606 195.194 398.403 196.562 397.998C197.93 397.593 199.061 396.909 199.955 395.947V387.666H191.421V383.715H204.792V397.239ZM241.285 384.83C241.285 388.443 240.677 391.6 239.461 394.301C238.246 396.985 236.524 399.037 234.295 400.455C232.067 401.873 229.467 402.582 226.495 402.582C223.591 402.582 221.017 401.873 218.771 400.455C216.526 399.02 214.779 396.985 213.529 394.352C212.297 391.701 211.664 388.637 211.63 385.159V382.5C211.63 378.954 212.246 375.823 213.479 373.104C214.711 370.386 216.45 368.31 218.695 366.875C220.958 365.423 223.541 364.697 226.445 364.697C229.399 364.697 231.999 365.414 234.245 366.849C236.507 368.268 238.246 370.336 239.461 373.054C240.677 375.755 241.285 378.904 241.285 382.5V384.83ZM236.448 382.449C236.448 378.076 235.57 374.725 233.814 372.395C232.058 370.049 229.602 368.875 226.445 368.875C223.372 368.875 220.949 370.049 219.177 372.395C217.421 374.725 216.518 377.967 216.467 382.12V384.83C216.467 389.067 217.353 392.402 219.126 394.833C220.916 397.247 223.372 398.454 226.495 398.454C229.635 398.454 232.067 397.314 233.789 395.035C235.511 392.739 236.397 389.456 236.448 385.184V382.449Z" fill="#010050"/>
</g>
<defs>
<clipPath id="clip0">
<rect width="330" height="269" fill="white" transform="translate(35 66)"/>
</clipPath>
</defs>
</svg>
