<svg width="400" height="400" viewBox="0 0 400 400" fill="none" xmlns="http://www.w3.org/2000/svg">
<path d="M361.946 200C361.946 110.929 289.302 38.4615 199.999 38.4615C110.697 38.4615 38.0527 110.929 38.0527 200C38.0527 245.549 57.1247 286.674 87.6305 316.069C88.3447 316.996 89.1906 317.748 90.1807 318.382C119.078 345.074 157.6 361.538 199.999 361.538C242.398 361.538 280.92 345.074 309.818 318.382C310.808 317.748 311.654 316.996 312.368 316.069C342.874 286.674 361.946 245.549 361.946 200ZM199.999 58.6539C278.139 58.6539 341.702 122.064 341.702 200C341.702 233.047 330.187 263.415 311.064 287.511C302.285 259.271 277.222 237.164 243.206 226.991C261.744 213.609 273.869 191.929 273.869 167.431C273.869 126.855 240.736 93.8458 199.999 93.8458C159.262 93.8458 126.13 126.855 126.13 167.431C126.13 191.929 138.254 213.609 156.792 226.991C122.776 237.164 97.7135 259.271 88.9344 287.511C69.8114 263.415 58.296 233.047 58.296 200C58.296 122.064 121.859 58.6539 199.999 58.6539ZM146.373 167.431C146.373 137.99 170.425 114.038 199.999 114.038C229.573 114.038 253.625 137.99 253.625 167.431C253.625 196.871 229.573 220.823 199.999 220.823C170.425 220.823 146.373 196.871 146.373 167.431ZM105.946 305.43C108.988 268.412 148.343 241.016 199.999 241.016C251.655 241.016 291.01 268.412 294.053 305.43C269.003 327.69 236.109 341.346 199.999 341.346C163.889 341.346 130.995 327.69 105.946 305.43Z" fill="#1D1D1B"/>
</svg>
