<svg width="400" height="400" viewBox="0 0 400 400" fill="none" xmlns="http://www.w3.org/2000/svg">
<path d="M98.3069 134.991C98.3069 133.501 98.2715 132.01 98.2715 130.555C98.8727 129.952 99.6508 129.952 100.429 129.952C111.958 129.952 123.523 129.952 135.052 129.952C135.582 129.952 136.113 130.023 136.608 130.129C137.28 130.271 137.598 131.087 138.341 131.087C138.801 131.123 139.26 131.229 139.649 131.549L139.614 131.62C139.932 131.904 140.251 132.188 140.675 132.329C140.816 132.365 140.958 132.436 141.099 132.471C142.585 132.4 143.575 133.785 145.06 133.785C145.202 133.856 145.343 133.927 145.449 134.033C145.874 134.849 146.793 134.601 147.43 134.956C147.854 135.382 148.279 135.808 148.986 135.737C149.304 135.737 149.623 135.737 149.941 135.737C150.259 135.772 150.577 135.808 150.86 135.985C151.285 136.269 151.497 136.872 152.169 136.766C152.558 136.801 152.982 136.766 153.371 136.801C153.619 136.837 153.866 136.908 154.079 137.014C154.326 137.334 154.68 137.582 154.998 137.866C156.342 138.327 157.509 139.25 158.959 139.463C159.383 139.747 159.596 140.386 160.268 140.279C160.586 140.279 160.904 140.279 161.222 140.315C161.541 140.35 161.894 140.386 162.177 140.563C162.602 141.025 163.026 141.486 163.769 141.379C164.122 141.379 164.441 141.379 164.794 141.415C165.183 141.45 165.502 141.592 165.785 141.841L165.749 141.912C166.174 142.231 166.633 142.551 167.164 142.728C168.331 143.97 170.099 143.58 171.408 144.361C171.797 144.822 172.433 145.035 172.752 145.567C172.858 145.745 172.893 145.958 172.929 146.135C173.035 153.34 172.964 160.509 172.964 167.713C172.964 168.529 173.035 169.416 172.044 169.807C171.655 169.949 171.266 169.949 170.842 169.878C170.665 169.842 170.488 169.807 170.311 169.771C169.18 169.381 168.366 168.281 167.058 168.352C166.916 168.281 166.775 168.21 166.669 168.103C166.421 167.713 166.103 167.394 165.572 167.465C165.007 167.429 164.441 167.5 163.91 167.323C163.769 167.252 163.627 167.181 163.521 167.074C163.168 166.506 162.637 166.329 162.001 166.329C161.682 166.293 161.399 166.151 161.116 165.974L161.152 165.903C160.833 165.584 160.48 165.335 159.985 165.335C159.666 165.3 159.348 165.3 159.03 165.264C158.853 165.229 158.712 165.193 158.57 165.158C158.04 164.98 157.544 164.661 157.155 164.27C156.236 163.809 155.246 163.632 154.362 163.099C153.937 162.922 153.442 162.851 153.018 162.638C152.629 162.318 152.381 161.751 151.744 161.857C151.426 161.857 151.108 161.857 150.79 161.822C150.471 161.786 150.118 161.751 149.835 161.573C149.41 161.112 148.986 160.65 148.243 160.757C147.89 160.757 147.571 160.757 147.218 160.721C146.829 160.686 146.51 160.544 146.227 160.296L146.263 160.225C145.909 159.941 145.52 159.657 145.025 159.657C144.707 159.621 144.388 159.55 144.105 159.408C143.999 159.302 143.893 159.16 143.823 159.018C143.469 158.202 142.655 158.273 141.948 158.131C141.807 158.095 141.665 158.024 141.524 157.918C141.205 157.527 140.923 157.101 140.321 157.172C140.003 157.172 139.685 157.172 139.366 157.172C138.942 157.172 138.553 157.137 138.164 156.924C137.704 156.64 137.457 156.001 136.785 156.072C136.396 156.001 136.042 155.93 135.759 155.646C135.653 155.469 135.547 155.291 135.512 155.079C135.264 149.187 135.476 143.296 135.37 137.405C135.37 136.73 135.724 135.772 134.521 135.63C123.275 135.559 112.029 135.63 100.747 135.595C100.004 135.666 99.0142 135.914 98.3069 134.991Z" fill="#1D3B7A"/>
<path d="M98.3057 103.866C98.3057 102.482 98.3057 101.098 98.3057 99.7142C98.9069 99.2883 99.5788 99.5012 100.18 99.5012C111.603 99.5012 123.026 99.5012 134.414 99.5012C135.157 99.3593 135.475 100.318 136.182 100.247C136.784 100.282 137.385 100.247 137.986 100.459C138.517 100.743 138.799 101.453 139.542 101.382C139.86 101.418 140.179 101.453 140.462 101.56C140.603 101.631 140.745 101.702 140.851 101.844C141.098 102.269 141.452 102.518 141.982 102.482C142.301 102.482 142.654 102.482 142.973 102.482C143.432 102.482 143.857 102.589 144.21 102.908L144.175 102.979C144.493 103.228 144.812 103.547 145.271 103.583C145.554 103.618 145.873 103.654 146.156 103.76C146.297 103.831 146.403 103.937 146.509 104.044C146.58 104.186 146.651 104.292 146.721 104.434C146.934 105.144 147.535 104.931 148.03 104.967C148.596 104.967 149.197 104.896 149.727 105.215C150.223 105.428 150.435 106.102 151.071 106.031C151.39 106.067 151.708 106.138 151.991 106.315C152.38 106.812 152.84 107.203 153.547 107.096C153.901 107.096 154.219 107.096 154.573 107.096C154.962 107.132 155.28 107.274 155.563 107.522L155.527 107.593C155.775 107.77 155.952 108.019 156.129 108.267C157.26 108.48 158.074 109.474 159.241 109.58C160.797 109.261 161.787 110.752 163.237 110.752C163.379 110.787 163.555 110.858 163.662 110.964C164.015 111.355 164.298 111.852 164.935 111.745C165.253 111.745 165.571 111.745 165.925 111.745C166.279 111.745 166.597 111.923 166.88 112.136L166.844 112.207C167.198 112.597 167.623 112.845 168.188 112.774C168.613 112.774 169.037 112.739 169.426 112.774C169.815 112.81 170.133 112.952 170.381 113.236L170.346 113.307C170.77 113.626 171.194 113.875 171.76 113.946C172.043 114.017 172.255 114.159 172.432 114.372C172.68 114.584 172.857 114.833 172.927 115.117C173.175 121.044 172.963 126.97 173.033 132.933C173.033 134.53 173.069 136.091 173.033 137.688C172.963 139.747 172.644 139.96 170.735 139.285C170.027 139.002 169.285 138.931 168.542 138.718C167.976 138.434 167.729 137.724 166.951 137.795C166.632 137.759 166.314 137.724 166.031 137.617C165.89 137.546 165.784 137.475 165.642 137.369C165.394 137.014 165.076 136.695 164.581 136.73C164.263 136.73 163.98 136.73 163.662 136.73C163.343 136.73 163.025 136.659 162.742 136.553C162.353 136.198 161.929 135.843 161.434 135.63C161.292 135.559 161.151 135.524 161.044 135.453C160.726 135.311 160.373 135.204 160.054 135.027C159.736 134.743 159.347 134.601 158.923 134.494C158.286 134.281 157.579 134.317 156.907 134.104C156.765 134.033 156.624 133.962 156.518 133.855C156.235 133.465 155.881 133.146 155.351 133.146C155.032 133.11 154.749 133.039 154.466 132.862C154.113 132.365 153.618 132.01 152.946 132.116C152.592 132.116 152.274 132.116 151.92 132.116C151.531 132.081 151.213 131.939 150.93 131.726L150.965 131.655C150.612 131.407 150.329 131.087 149.904 130.945C149.763 130.91 149.621 130.839 149.48 130.803C148.207 130.236 147.004 129.49 145.519 129.49C145.377 129.419 145.236 129.348 145.13 129.242C144.706 128.426 143.857 128.638 143.149 128.461C143.008 128.426 142.867 128.355 142.76 128.248C142.442 127.893 142.159 127.396 141.558 127.503C141.24 127.503 140.921 127.503 140.638 127.503C140.32 127.503 140.002 127.432 139.719 127.254C139.365 126.828 139.012 126.403 138.446 126.261C137.526 125.941 136.607 125.586 135.899 124.877C135.793 124.699 135.723 124.522 135.687 124.309C135.475 118.169 135.652 112.029 135.581 105.889C135.793 104.718 135.228 104.363 134.167 104.576C123.097 104.612 112.063 104.612 100.993 104.576C100.039 104.47 99.0483 104.612 98.3057 103.866Z" fill="#1D3B7A"/>
<path d="M259.151 175.237C259.044 175.201 258.938 175.166 258.832 175.201C258.302 174.953 257.842 174.598 257.241 174.527C257.099 174.492 256.922 174.456 256.781 174.421C255.755 174.03 254.659 173.746 253.846 172.93C253.457 172.611 253.209 172.078 252.573 172.149C252.183 172.149 251.759 172.149 251.37 172.114C251.123 172.078 250.875 172.007 250.663 171.865C250.274 171.369 249.779 170.978 249.071 171.049C248.718 171.014 248.435 170.872 248.152 170.659L248.187 170.588C247.833 170.233 247.444 169.984 246.914 170.02C246.49 169.984 246.065 169.949 245.676 169.842C245.075 169.665 244.58 169.346 244.12 168.955C242.741 168.565 241.644 167.287 240.053 167.571C239.735 167.571 239.381 167.5 239.098 167.358C238.638 167.145 238.462 166.471 237.79 166.506C237.471 166.471 237.153 166.471 236.835 166.364C236.693 166.293 236.552 166.187 236.41 166.116L236.446 166.01C236.127 165.761 235.809 165.442 235.349 165.442C235.066 165.406 234.748 165.371 234.465 165.3C234.324 165.264 234.147 165.229 234.006 165.158C233.369 164.874 232.803 164.413 232.096 164.271C231.636 164.129 231.212 164.022 230.787 163.738C230.434 163.49 230.045 163.241 229.62 163.099C229.054 162.886 228.418 162.957 227.817 162.78C227.675 162.709 227.569 162.638 227.427 162.532C227.109 161.928 226.508 161.822 225.907 161.822C225.553 161.822 225.235 161.644 224.952 161.431C224.457 160.828 223.856 160.296 223.643 159.515C223.36 153.375 223.573 147.235 223.537 141.096C223.537 139.57 223.325 138.043 223.714 136.517C223.891 136.092 224.28 135.914 224.704 135.808C225.164 135.737 225.659 135.737 226.119 135.879C226.26 135.95 226.437 136.021 226.579 136.092C226.897 136.482 227.215 136.943 227.852 136.837C228.17 136.837 228.488 136.837 228.807 136.837C229.16 136.872 229.479 137.014 229.726 137.263L229.691 137.334C230.009 137.511 230.151 137.866 230.434 138.079C230.929 138.363 231.53 138.221 232.06 138.469C232.202 138.54 232.343 138.647 232.449 138.753C232.874 139.534 233.758 139.215 234.359 139.641C234.713 139.995 234.996 140.492 235.632 140.386C236.021 140.386 236.446 140.386 236.835 140.386C237.188 140.386 237.507 140.457 237.79 140.634C238.249 140.954 238.497 141.521 239.098 141.628C240.23 142.089 241.22 142.977 242.564 142.87C243.696 143.154 244.544 144.112 245.782 144.077C246.313 144.29 246.631 144.822 247.232 144.929C247.551 144.964 247.869 145 248.187 145C248.505 145.035 248.824 145.07 249.107 145.212C249.531 145.603 249.849 146.135 250.521 146.064C250.84 146.064 251.123 146.1 251.441 146.206C251.582 146.277 251.724 146.348 251.83 146.455C252.077 146.88 252.431 147.129 252.926 147.093C253.244 147.093 253.563 147.093 253.916 147.129C254.27 147.164 254.588 147.306 254.836 147.555L254.801 147.59C255.791 147.661 256.498 148.3 257.311 148.761C257.665 149.045 258.054 149.294 258.514 149.4C259.115 149.613 259.787 149.542 260.424 149.649C260.601 149.72 260.742 149.791 260.883 149.862C261.272 150.323 261.803 150.713 262.192 151.21C262.298 151.388 262.333 151.601 262.404 151.814C262.546 159.125 262.44 166.4 262.475 173.711C262.475 174.172 262.404 174.634 262.192 175.095C261.909 175.521 261.485 175.627 261.025 175.698C260.353 175.769 259.716 175.734 259.151 175.237Z" fill="#1D3B7A"/>
<path d="M246.772 200.47C246.56 200.435 246.312 200.435 246.1 200.399C245.746 199.938 245.216 199.796 244.65 199.76C244.402 199.725 244.19 199.654 243.978 199.547C243.589 199.015 243.023 198.767 242.351 198.731C241.998 198.696 241.715 198.554 241.467 198.341L241.503 198.305C240.335 198.234 239.416 197.347 238.284 197.17C238.143 197.099 238.001 197.028 237.895 196.957C237.577 196.531 237.188 196.176 236.622 196.247C236.198 196.247 235.809 196.14 235.49 195.892L235.526 195.821C235.207 195.431 234.818 195.218 234.288 195.218C233.934 195.218 233.616 195.218 233.262 195.182C232.909 195.147 232.59 195.005 232.307 194.792L232.343 194.721C231.459 193.94 230.398 193.656 229.231 193.514C229.089 193.514 228.948 193.514 228.771 193.479C228.453 193.301 228.17 193.088 227.851 192.946C227.71 192.911 227.604 192.84 227.462 192.804C227.109 192.698 226.79 192.52 226.472 192.307C226.083 191.846 225.623 191.633 225.022 191.633C224.704 191.598 224.385 191.491 224.173 191.207L224.138 191.243C223.678 190.71 223.607 190.072 223.607 189.433C223.607 182.193 223.607 174.953 223.607 167.713C223.607 167.252 223.643 166.755 223.82 166.329C224.032 165.903 224.385 165.761 224.845 165.796C225.411 166.009 225.694 166.79 226.437 166.648C226.896 166.684 227.321 166.79 227.639 167.145V167.181C228.134 167.429 228.806 167.216 229.16 167.784C230.504 168.174 231.565 169.168 232.979 169.31C233.121 169.381 233.262 169.452 233.404 169.523C233.687 169.842 233.934 170.268 234.465 170.268C234.783 170.304 235.101 170.339 235.384 170.481C235.526 170.552 235.667 170.659 235.773 170.801C236.516 171.936 237.789 171.546 238.815 171.865C238.956 171.936 239.098 172.043 239.204 172.114C239.699 172.965 240.548 172.682 241.29 172.753C241.715 172.788 242.104 172.894 242.422 173.178C242.952 173.924 243.907 173.675 244.579 174.03C245.004 174.279 245.181 174.917 245.782 174.882C246.171 174.917 246.56 174.917 246.913 175.059C247.055 175.13 247.196 175.201 247.302 175.308C247.55 175.734 247.904 175.982 248.399 175.947C248.717 175.947 249.071 175.947 249.389 175.982C249.743 175.982 250.061 176.16 250.344 176.372L250.309 176.443C250.662 176.585 250.91 176.834 251.122 177.118C251.511 177.508 252.041 177.366 252.501 177.508C252.643 177.544 252.784 177.615 252.89 177.686C253.209 177.97 253.633 178.147 254.057 178.218C254.694 178.466 255.401 178.395 256.038 178.573C256.179 178.644 256.285 178.715 256.427 178.786C256.674 179.105 256.922 179.496 257.417 179.496C257.7 179.531 258.018 179.567 258.301 179.673C258.443 179.744 258.549 179.85 258.655 179.957C258.902 180.383 259.291 180.56 259.787 180.525C260.211 180.525 260.635 180.525 261.024 180.56C261.378 180.596 261.732 180.738 261.944 181.057V181.022C262.474 181.519 262.51 182.157 262.545 182.796C262.545 190.107 262.545 197.383 262.545 204.693C262.545 205.119 262.51 205.51 262.333 205.9C262.121 206.326 261.767 206.468 261.343 206.432C260.671 206.291 260.388 205.403 259.574 205.581C259.256 205.581 258.902 205.581 258.584 205.545C258.266 205.545 257.948 205.474 257.629 205.368C257.205 205.084 257.028 204.516 256.462 204.374C256.321 204.339 256.179 204.268 256.038 204.232C255.26 204.09 254.659 203.416 253.81 203.451C253.491 203.451 253.138 203.451 252.82 203.416C252.466 203.416 252.148 203.345 251.829 203.167C251.193 202.351 250.132 202.245 249.318 201.712C248.929 201.357 248.646 200.861 248.01 200.932C247.515 200.861 247.126 200.648 246.772 200.47Z" fill="#1D3B7A"/>
<path d="M211.724 185.6C211.618 185.564 211.512 185.529 211.405 185.493C211.087 185.138 210.698 184.925 210.203 184.925C209.885 184.89 209.566 184.854 209.284 184.748C208.152 184.429 207.409 183.293 206.101 183.364C205.959 183.293 205.818 183.222 205.676 183.151C205.323 182.902 204.934 182.654 204.509 182.548C203.943 182.335 203.307 182.441 202.741 182.228C202.599 182.157 202.458 182.051 202.352 181.98C202.034 181.447 201.503 181.305 200.902 181.305C200.548 181.305 200.265 181.163 200.018 180.951L200.053 180.88C199.735 180.489 199.346 180.276 198.815 180.276C198.462 180.276 198.143 180.276 197.825 180.241C197.471 180.241 197.153 180.063 196.87 179.85L196.905 179.779C196.375 179.495 195.915 179.141 195.349 178.963C194.96 178.857 194.642 178.644 194.324 178.466C193.97 177.827 193.334 177.792 192.697 177.721C192.131 177.366 191.459 177.685 190.893 177.331V177.295C190.575 176.905 190.151 176.692 189.656 176.656C189.337 176.621 189.054 176.55 188.771 176.372C188.418 175.769 187.887 175.592 187.215 175.627C186.862 175.627 186.543 175.627 186.19 175.592C185.801 175.556 185.482 175.414 185.199 175.166L185.27 175.059C184.916 174.811 184.563 174.527 184.103 174.42C183.962 174.385 183.785 174.349 183.643 174.278C183.254 174.136 182.901 173.924 182.512 173.711C181.84 173.072 180.637 173.249 180.248 172.22C179.93 171.013 180.107 169.736 180.071 168.529C180.036 162.744 180.071 156.959 180.071 151.174C180.071 150.749 180.071 150.358 180.071 149.932C180.107 147.448 180.531 147.2 182.724 148.3C183.749 148.264 184.351 149.116 185.235 149.435C185.588 149.471 185.907 149.577 186.225 149.719C186.649 150.181 187.074 150.642 187.816 150.536C188.17 150.536 188.488 150.536 188.842 150.571C189.231 150.607 189.549 150.749 189.832 150.962L189.797 151.033C190.08 151.281 190.363 151.565 190.716 151.707C190.858 151.778 190.999 151.813 191.141 151.884C191.495 152.026 191.884 152.133 192.166 152.381C192.768 153.197 193.687 152.949 194.501 153.02C195.597 153.162 196.34 154.333 197.577 154.156C197.719 154.191 197.86 154.262 198.002 154.369C198.32 154.759 198.638 155.22 199.24 155.114C199.629 155.114 200.018 155.114 200.442 155.149C200.69 155.185 200.902 155.256 201.114 155.362C201.503 155.824 201.927 156.25 202.564 156.356C203.342 156.533 203.908 157.208 204.757 157.208C205.075 157.243 205.429 157.279 205.747 157.385C206.949 157.776 207.975 158.485 209.177 158.876C209.602 159.195 209.814 159.799 210.486 159.692C210.875 159.692 211.264 159.692 211.688 159.728C212.007 159.728 212.325 159.763 212.608 159.905C213.103 160.118 213.244 160.757 213.81 160.899C213.952 160.97 214.093 161.005 214.27 161.076C215.048 161.502 215.826 161.892 216.675 162.247C217.382 162.673 217.524 163.348 217.524 164.093C217.524 171.617 217.594 179.105 217.488 186.629C217.488 186.806 217.418 186.984 217.382 187.161C217.241 187.445 217.064 187.658 216.71 187.658C216.074 187.658 215.826 186.806 215.154 186.913C214.73 186.877 214.341 186.877 213.987 186.629C213.527 186.381 213.28 185.777 212.643 185.813C212.29 185.919 212.007 185.777 211.724 185.6Z" fill="#1D3B7A"/>
<path d="M91.1264 155.682C89.7472 155.682 88.4033 155.682 87.024 155.682C86.2813 155.043 86.4582 154.191 86.4582 153.375C86.4228 148.194 86.4581 143.012 86.4228 137.831C86.4228 137.085 86.6703 136.269 85.963 135.701C85.2204 135.24 84.3716 135.311 83.5582 135.311C75.035 135.311 66.5119 135.311 57.9887 135.311C57.3521 135.311 56.6802 135.346 56.0436 135.24C55.407 135.133 54.9119 134.885 54.9473 134.14C54.9826 129.952 54.3461 130.023 58.4485 130.023C68.6338 130.023 78.7838 130.023 88.9691 130.023C89.8533 130.023 90.7374 129.881 91.5155 130.449C92.0106 130.946 92.0459 131.62 92.0459 132.259C92.0459 139.605 92.1167 146.987 92.0106 154.333C91.9398 154.901 91.763 155.434 91.1264 155.682Z" fill="#1D3B7A"/>
<path d="M366.131 252.64C365.706 251.789 365.176 250.937 365.353 249.908C365.353 249.553 365.282 249.198 365.141 248.843C365.07 248.701 364.928 248.559 364.787 248.453C364.469 248.311 364.15 248.275 363.797 248.24C363.478 248.24 363.16 248.24 362.842 248.24C362.17 248.311 361.746 247.956 361.392 247.459C361.25 247.388 361.109 247.317 360.967 247.246C360.296 247.104 359.624 247.139 358.952 247.104C358.138 247.175 357.572 246.643 356.936 246.288C356.476 246.004 355.946 246.039 355.415 246.004C355.167 246.004 354.92 246.004 354.637 246.004C353.152 246.004 352.055 244.868 350.605 244.726C350.393 244.478 350.216 244.229 349.969 244.087C349.65 244.052 349.297 244.016 348.978 243.981C348.625 243.661 348.165 243.555 347.705 243.555C347.352 243.555 347.033 243.555 346.68 243.555C346.008 243.661 345.76 243.023 345.336 242.774C345.053 242.597 344.735 242.526 344.381 242.526C344.063 242.526 343.744 242.526 343.391 242.526C342.683 242.632 342.259 242.171 341.835 241.745C341.269 241.425 340.597 241.532 339.996 241.319C339.536 241.213 339.147 241.035 338.758 240.751C338.616 240.68 338.475 240.609 338.369 240.538C338.015 240.432 337.661 240.361 337.308 240.219C336.883 240.077 336.565 239.757 336.211 239.474L336.247 239.403C335.964 239.154 335.646 239.012 335.292 238.977C334.974 238.941 334.62 238.941 334.302 238.941C333.63 239.048 333.418 238.409 332.993 238.16C332.71 237.983 332.392 237.947 332.074 237.912C331.685 237.912 331.26 237.912 330.871 237.912C330.341 237.947 329.987 237.735 329.74 237.273C329.633 237.167 329.492 237.06 329.35 237.025C328.643 236.812 327.794 236.989 327.335 236.244C327.229 236.137 327.087 236.067 326.946 235.996C326.38 235.783 325.743 235.925 325.177 235.712C325.036 235.641 324.894 235.605 324.753 235.534C324.329 235.321 323.94 235.073 323.515 234.86L323.551 234.789C323.268 234.576 322.949 234.398 322.56 234.398C322.242 234.363 321.888 234.363 321.57 234.363C320.898 234.469 320.686 233.831 320.261 233.582C319.979 233.405 319.66 233.369 319.342 233.334C318.953 233.334 318.564 233.334 318.175 233.334C317.574 233.405 317.22 233.085 316.937 232.624C316.831 232.518 316.69 232.447 316.548 232.411C315.805 232.234 314.957 232.376 314.462 231.595C312.905 231.169 311.385 230.672 309.935 229.962C309.687 229.891 309.475 229.856 309.227 229.82C308.626 229.785 308.06 229.678 307.636 229.181L307.671 229.11C307.388 228.898 307.07 228.756 306.716 228.72C306.398 228.685 306.044 228.685 305.726 228.685C305.09 228.791 304.842 228.223 304.453 227.904C304.312 227.833 304.17 227.762 304.029 227.691C303.251 227.62 302.473 227.549 301.942 226.839C300.775 226.413 299.466 226.342 298.405 225.597L298.441 225.561C298.193 225.313 297.875 225.171 297.486 225.136C297.168 225.1 296.814 225.1 296.496 225.1C295.965 225.136 295.576 224.887 295.223 224.532L295.258 224.461C294.904 224.177 294.48 224.035 294.02 224.035C293.702 224.035 293.348 224.035 293.03 224.035C292.429 224.142 292.11 223.716 291.757 223.29C291.615 223.219 291.474 223.148 291.332 223.077C290.802 222.935 290.236 222.971 289.67 222.971C288.998 223.042 288.574 222.722 288.22 222.225C287.619 221.8 286.664 222.119 286.24 221.303C286.134 221.196 285.992 221.125 285.851 221.054C285.249 220.841 284.613 220.912 284.012 220.699C283.87 220.664 283.729 220.593 283.552 220.557C282.809 220.38 282.208 219.848 281.465 219.599C280.899 219.457 280.723 218.854 280.227 218.605C279.945 218.428 279.626 218.393 279.273 218.357C278.884 218.357 278.459 218.357 278.07 218.357C277.434 218.464 277.151 217.967 276.832 217.576C276.054 217.044 275.312 216.441 274.286 216.37L274.321 216.334C274.109 216.086 273.826 215.944 273.508 215.908C272.978 215.908 272.553 215.624 272.129 215.34C271.917 215.305 271.704 215.269 271.492 215.269C271.068 214.95 270.573 214.808 270.007 214.808C269.335 214.915 269.017 214.382 268.628 214.027C268.345 213.85 267.991 213.814 267.673 213.779C267.354 213.779 267.036 213.779 266.682 213.779C266.01 213.85 265.551 213.424 265.126 212.998C264.49 212.643 263.535 212.892 263.11 212.075C262.969 212.004 262.828 211.933 262.651 211.933C262.05 212.04 261.519 211.685 260.953 211.649C259.821 211.472 259.008 210.585 257.912 210.336C257.735 210.088 257.558 209.839 257.31 209.662L257.346 209.591C257.063 209.378 256.745 209.201 256.391 209.201C255.967 209.165 255.578 209.201 255.153 209.201C254.587 209.272 254.198 208.952 253.915 208.491C253.809 208.384 253.668 208.313 253.526 208.278C252.819 208.065 251.97 208.278 251.475 207.533C250.909 207 250.131 207.071 249.459 206.858C249 206.752 248.575 206.645 248.222 206.361C248.08 206.29 247.939 206.219 247.832 206.148C247.62 206.078 247.408 206.007 247.161 205.971C246.559 205.829 246.1 205.51 245.64 205.084C245.321 205.048 244.968 205.013 244.65 204.977C244.367 204.8 244.084 204.658 243.765 204.622C243.129 204.693 242.846 204.126 242.457 203.806C242.174 203.629 241.891 203.558 241.537 203.558C240.759 203.451 239.84 203.842 239.239 202.99C239.133 202.883 238.991 202.777 238.85 202.706C238.213 202.458 237.506 202.351 237.011 201.819C236.869 201.712 236.763 201.641 236.622 201.57C236.126 201.393 235.561 201.535 235.065 201.215C234.783 201.002 234.641 200.648 234.323 200.47C234.004 200.435 233.651 200.399 233.333 200.364C233.05 200.151 232.767 200.009 232.413 199.973C231.706 200.044 231.246 199.618 230.786 199.157C230.503 198.98 230.185 198.909 229.831 198.873C229.513 198.873 229.195 198.873 228.876 198.838C228.24 198.944 227.992 198.376 227.603 198.057C226.825 197.134 225.587 197.134 224.597 196.602C224.456 196.531 224.279 196.495 224.102 196.46C223.784 196.424 223.465 196.389 223.147 196.389C222.475 196.389 221.98 195.963 221.556 195.537C221.273 195.395 220.955 195.36 220.601 195.324C220.283 195.324 219.964 195.324 219.646 195.324C219.151 195.324 218.762 195.076 218.444 194.721L218.479 194.65C218.196 194.472 217.878 194.295 217.524 194.295C216.817 194.366 216.357 193.94 215.862 193.514C215.155 193.55 214.553 193.266 213.952 193.017C213.457 192.911 213.033 192.591 212.573 192.414C212.007 192.201 211.441 192.094 210.84 192.13C210.168 192.201 209.673 192.023 209.284 191.456C208.93 191.243 208.612 191.065 208.223 190.923C207.763 190.781 207.409 190.462 207.02 190.178C206.561 190.143 206.136 190.072 205.677 190.036C205.394 189.859 205.111 189.681 204.757 189.646C204.085 189.717 203.837 189.042 203.342 188.794C203.024 188.616 202.67 188.545 202.317 188.545C201.609 188.439 200.796 188.723 200.195 188.084C199.629 187.481 198.851 187.481 198.073 187.481C196.835 187.481 196.022 186.416 194.855 186.203C194.678 185.955 194.501 185.706 194.218 185.529C193.864 185.493 193.546 185.458 193.192 185.422C192.874 185.138 192.485 185.032 192.061 185.032C191.495 185.032 191.035 184.855 190.717 184.429C190.399 184.393 190.045 184.393 189.727 184.358C188.772 184.287 187.958 183.932 187.251 183.257C186.614 183.151 185.942 183.116 185.377 182.796C184.952 182.654 184.528 182.512 184.139 182.228C183.997 182.157 183.891 182.086 183.75 182.015C183.113 181.838 182.406 181.98 181.805 181.767C181.663 181.731 181.522 181.66 181.38 181.589C181.027 181.447 180.744 181.164 180.425 180.951L180.461 180.844C180.178 180.631 179.86 180.454 179.471 180.418C179.117 180.383 178.799 180.383 178.445 180.418C177.738 180.525 177.278 180.063 176.853 179.602C176.641 179.46 176.394 179.389 176.146 179.389C175.722 179.354 175.297 179.354 174.838 179.354C174.519 179.354 174.166 179.354 173.847 179.354C173.14 179.46 172.963 178.75 172.468 178.502C171.832 178.253 171.16 178.324 170.488 178.289C169.851 178.395 169.497 178.04 169.321 177.473C169.214 177.331 169.108 177.224 168.967 177.118C168.578 176.905 168.153 176.869 167.729 176.869C167.411 176.869 167.093 176.869 166.774 176.869C165.961 176.94 165.395 176.301 164.688 176.053C164.546 175.982 164.405 175.947 164.263 175.911C163.98 175.84 163.662 175.84 163.379 175.805C162.672 175.876 162.389 175.308 161.929 174.917C161.717 174.811 161.469 174.74 161.222 174.704C160.797 174.669 160.373 174.669 159.949 174.669C159.63 174.669 159.277 174.669 158.958 174.669C158.251 174.775 157.827 174.314 157.402 173.853C156.624 173.604 155.811 173.462 155.21 172.823C153.3 172.646 151.496 172.078 149.657 171.581L149.693 171.546C149.339 171.191 148.879 171.084 148.419 171.084C148.066 171.084 147.712 171.084 147.358 171.084C147.04 171.084 146.722 171.084 146.368 171.084C145.838 171.12 145.519 170.836 145.272 170.446C145.166 170.339 145.024 170.233 144.883 170.197C144.565 170.091 144.246 170.055 143.893 170.055C143.468 170.055 143.079 170.055 142.655 170.055C142.336 170.055 142.018 170.055 141.7 170.02C141.028 170.091 140.851 169.381 140.356 169.168C139.932 168.991 139.507 168.955 139.083 168.955C138.482 168.955 137.88 168.955 137.244 168.955C136.537 169.097 136.289 168.458 135.794 168.174C134.344 167.571 132.823 167.287 131.267 166.968L131.302 166.932C131.019 166.684 130.666 166.506 130.277 166.506C129.817 166.471 129.357 166.471 128.898 166.471C128.544 166.471 128.19 166.471 127.837 166.471C127.518 166.471 127.165 166.471 126.846 166.471C126.351 166.506 125.962 166.258 125.608 165.903L125.644 165.796C125.326 165.548 124.972 165.406 124.583 165.406C124.123 165.371 123.663 165.371 123.204 165.371C122.85 165.371 122.496 165.371 122.143 165.371C121.789 165.371 121.471 165.371 121.117 165.335C120.41 165.371 120.198 164.625 119.667 164.448C118.677 164.128 117.651 164.306 116.626 164.27C115.635 164.27 114.645 164.412 113.938 163.49C112.594 163.064 111.215 163.17 109.835 163.206C108.916 163.241 107.961 163.454 107.289 162.531C107.148 162.425 106.971 162.354 106.794 162.283C105.733 162.07 104.672 162.212 103.611 162.141C102.302 162.07 100.923 162.425 99.6854 161.715C98.8013 161.183 97.8464 161.076 96.8561 161.076C95.9366 161.076 95.0171 161.183 94.0976 160.934C93.9208 160.899 93.7086 160.863 93.5318 160.828C93.1781 160.792 92.7891 160.757 92.4354 160.757C92.0818 160.757 91.7281 160.757 91.3745 160.757C90.561 160.97 90.2428 160.083 89.6062 159.976C88.8989 160.047 88.2976 159.55 87.5903 159.657C85.6452 159.657 83.7355 159.621 81.7903 159.621C79.9513 159.692 78.1123 159.586 76.3087 159.657C75.6013 159.692 74.894 159.621 74.1867 159.692C73.1611 159.905 72.3477 159.302 71.4989 158.947C65.2745 158.415 59.0855 158.415 52.8612 158.947C51.9417 159.621 50.9161 159.763 49.8551 159.692C49.0417 159.657 48.2283 159.692 47.4148 159.692C46.0356 159.621 44.6563 159.728 43.2771 159.692C41.4734 159.657 39.6697 159.692 37.8661 159.728C37.371 159.728 36.4515 159.976 36.4515 159.976L34.9661 160.863L34.1173 161.396L33.7637 162.46V163.596L33.799 165.016C33.8344 165.406 34.1881 166.08 34.1881 166.08L34.2942 166.045C34.6478 166.4 34.86 166.79 34.86 167.322C34.86 167.642 34.86 167.997 34.86 168.352C34.86 168.707 34.9307 169.062 35.0015 169.416C35.1429 171.404 36.3807 173.143 36.4161 175.166C36.6283 175.627 36.982 176.018 37.0881 176.55C37.4417 177.544 37.1234 178.608 37.4063 179.602C37.4771 179.744 37.5478 179.886 37.6539 180.028C38.1137 180.347 38.4319 180.773 38.3259 181.377C38.3259 181.98 38.3259 182.583 38.3259 183.151C38.3259 183.577 38.3612 184.003 38.5734 184.393C38.821 184.855 39.4929 185.103 39.3868 185.777C39.3868 186.132 39.3868 186.452 39.3868 186.806C39.3868 187.268 39.4929 187.729 39.8112 188.084L39.8819 188.049C40.0588 188.581 40.2356 189.113 40.5893 189.539C40.5893 190.994 41.6856 192.094 41.8271 193.479C41.8624 193.904 41.8624 194.295 42.11 194.685C42.3222 195.147 42.9941 195.36 42.9234 195.998C42.9588 196.318 42.9234 196.637 42.9588 196.957C42.9588 197.347 42.9588 197.773 43.1002 198.128C43.171 198.27 43.2417 198.412 43.3478 198.518C43.7014 198.767 44.0551 199.015 44.0197 199.512C44.0551 199.796 44.0551 200.115 44.1258 200.399C44.1612 200.541 44.1966 200.683 44.2673 200.825C44.621 201.57 45.1514 202.245 45.0453 203.167C45.0453 203.487 45.0453 203.842 45.0807 204.161C45.1161 204.516 45.2575 204.835 45.4697 205.119L45.5051 205.084C45.6112 205.19 45.7173 205.332 45.8234 205.403C46.7783 205.829 46.2831 206.858 46.6722 207.533C46.9551 207.994 47.3795 208.313 47.4502 208.881C47.4856 209.201 47.4856 209.485 47.5209 209.804C47.5563 210.123 47.5917 210.443 47.7685 210.727C48.0868 211.117 48.6526 211.295 48.5819 211.933C48.6173 212.324 48.6173 212.714 48.7587 213.069C48.8295 213.211 48.9002 213.353 49.0417 213.459C49.4661 213.708 49.6783 214.063 49.6429 214.56C49.6429 214.879 49.6429 215.198 49.6783 215.553C49.7136 215.908 49.8197 216.228 50.1026 216.476L50.138 216.441C50.1734 217.47 50.8807 218.18 51.3758 218.996C51.8356 219.386 52.2246 219.812 52.1892 220.486C52.2246 220.735 52.2953 220.948 52.4368 221.125C52.8612 221.48 53.2856 221.871 53.2148 222.509C53.2502 222.829 53.2502 223.113 53.3917 223.432C53.4624 223.574 53.5331 223.681 53.6746 223.787C54.0636 224.035 54.3112 224.355 54.3112 224.816C54.3112 225.136 54.3465 225.42 54.3819 225.739C54.4173 225.881 54.4526 226.058 54.5234 226.2C55.266 227.052 55.549 228.117 55.938 229.146C56.0087 229.288 56.0795 229.43 56.1855 229.536C56.9636 229.962 56.6453 230.885 57.0697 231.453C57.4941 231.772 57.8477 232.163 58.0246 232.695C58.0953 232.837 58.2014 232.943 58.3075 233.05C58.6965 233.298 58.9794 233.618 59.1209 234.044C59.3331 234.753 59.8282 235.321 60.1111 235.996C60.288 236.421 60.3587 236.883 60.5002 237.309C60.5709 237.451 60.6416 237.593 60.7477 237.699C61.2782 238.16 61.3843 238.835 61.5965 239.474C61.6672 239.616 61.7733 239.722 61.8794 239.828C62.2331 240.041 62.4453 240.325 62.4806 240.751C62.516 241.142 62.516 241.496 62.6221 241.851C62.6928 241.993 62.7636 242.1 62.8697 242.206C63.2587 242.419 63.6124 242.668 63.8953 243.023C64.2136 243.342 64.5319 243.661 64.7087 244.123C64.7794 244.265 64.8148 244.407 64.8855 244.549C65.3099 245.471 66.2294 246.181 66.1233 247.352C66.1941 247.494 66.2294 247.636 66.3355 247.778C66.6538 248.098 67.0782 248.311 67.2904 248.736C67.3965 248.843 67.4672 248.949 67.6087 249.056C67.9623 249.233 68.1392 249.517 68.1745 249.908C68.2099 250.192 68.2453 250.511 68.3867 250.795C68.4575 250.937 68.5636 251.043 68.705 251.114C69.094 251.363 69.2709 251.789 69.5184 252.143C69.9782 252.605 70.5087 253.031 70.6148 253.741C70.7209 254.592 71.5696 254.912 71.9233 255.586C72.3123 255.905 72.7367 256.26 72.8782 256.793C72.9489 256.935 73.0196 257.041 73.1611 257.148C73.5501 257.396 73.9038 257.609 74.1867 257.964C74.5757 258.319 74.894 258.709 75.0709 259.241C75.3538 260.164 76.1318 260.768 76.5562 261.584C76.8391 261.939 77.2989 262.152 77.5111 262.578C77.6172 262.684 77.7233 262.79 77.8294 262.897C78.1477 263.074 78.4306 263.358 78.6074 263.678C78.7135 263.784 78.8196 263.891 78.9257 263.997C79.244 264.175 79.4916 264.458 79.7038 264.778C79.8099 264.884 79.916 264.991 80.0221 265.097C80.5525 265.417 80.7647 266.056 81.2245 266.375C81.6842 266.588 82.0025 266.978 82.3208 267.369C82.6391 267.653 82.9928 267.866 82.9574 268.362C82.9928 268.93 82.533 269.037 82.144 269.214C81.083 269.782 80.0928 270.456 78.8904 270.669C78.5367 271.06 78.183 271.485 77.7233 271.769C77.4404 272.089 77.2282 272.515 76.6977 272.515C76.3794 272.55 76.0965 272.586 75.8135 272.728C75.6721 272.799 75.566 272.905 75.4952 273.047C75.2123 273.544 74.5757 273.579 74.2928 274.041V274.076C73.9038 274.431 73.4087 274.644 73.055 275.07C72.7721 275.602 72.5245 276.135 71.994 276.454C71.5343 277.093 70.9331 277.59 70.4026 278.122C70.1196 278.264 69.8721 278.442 69.6953 278.725L69.6599 278.69C69.2709 279.009 68.8818 279.329 68.6343 279.79L68.5989 279.755C68.4575 279.861 68.3514 279.968 68.2806 280.11C68.1745 280.429 68.1392 280.748 68.1038 281.068C68.1392 281.636 67.6794 281.884 67.3258 282.203C67.1489 282.452 67.0782 282.771 67.0075 283.091C66.9014 283.659 66.4416 283.978 66.088 284.404L66.0172 284.368C65.7343 284.723 65.6282 285.114 65.5928 285.575C65.5928 286.107 65.416 286.569 65.1331 287.03C65.027 287.172 64.9563 287.349 64.9209 287.527C64.7441 288.485 65.0623 289.55 64.5672 290.437C63.7185 291.928 63.7538 293.56 63.7892 295.193C63.8245 296.009 63.7185 296.825 63.4709 297.606C63.2941 300.516 63.3294 300.552 66.1233 300.552C160.868 300.552 255.648 300.552 350.393 300.552C351.56 300.552 351.949 299.487 352.657 298.884C352.904 298.706 353.222 298.6 353.505 298.458C353.647 298.387 353.753 298.28 353.859 298.138C354.071 297.713 354.46 297.464 354.778 297.145C355.026 296.754 355.38 296.435 355.663 296.08L355.698 296.116C356.052 295.832 356.122 295.406 356.158 294.98C356.087 294.341 356.476 294.022 356.936 293.702C357.431 293.063 357.997 292.531 358.456 291.892C358.704 291.608 359.058 291.431 359.199 291.04C359.235 290.828 359.235 290.65 359.27 290.437C359.376 290.331 359.447 290.189 359.553 290.047C359.659 289.763 359.659 289.443 359.694 289.159C359.659 288.663 359.977 288.379 360.331 288.13C360.437 288.024 360.508 287.882 360.578 287.74C360.72 287.456 360.72 287.172 360.755 286.853C360.72 286.285 361.003 285.894 361.463 285.61C361.569 285.504 361.639 285.362 361.71 285.22C362.064 284.368 361.427 283.197 362.453 282.523C362.559 282.416 362.665 282.274 362.736 282.132C363.019 281.494 362.806 280.748 363.054 280.074C363.089 279.932 363.16 279.79 363.196 279.648C363.443 279.009 363.903 278.477 364.115 277.803C364.186 277.661 364.221 277.519 364.256 277.341C364.327 277.022 364.363 276.703 364.363 276.383C364.363 275.957 364.398 275.567 364.398 275.141C364.398 274.822 364.398 274.502 364.433 274.183C364.398 273.508 365.105 273.295 365.282 272.763C365.53 272.124 365.494 271.485 365.494 270.811C365.494 269.995 365.53 269.214 365.494 268.398C365.459 267.688 365.53 266.978 365.494 266.268C365.494 265.452 365.53 264.671 365.494 263.855C365.53 262.613 365.317 261.371 366.237 260.306C366.131 257.644 366.131 255.16 366.131 252.64ZM122.319 213.246L122.249 213.211C121.895 213.53 121.648 213.921 121.683 214.453C121.683 214.808 121.683 215.127 121.648 215.447C121.612 215.802 121.471 216.121 121.223 216.405L121.188 216.37C120.869 216.724 120.622 217.115 120.304 217.505C119.809 218.002 119.313 218.499 118.783 218.96H118.748C118.323 219.244 118.005 219.635 117.651 219.99L117.687 220.025C117.439 220.203 117.156 220.344 116.838 220.38C116.378 220.415 115.989 220.522 115.777 220.983C115.671 221.09 115.565 221.196 115.423 221.267C114.787 221.409 114.468 221.977 113.938 222.296C113.761 222.296 113.584 222.296 113.407 222.296C111.144 222.758 108.88 222.758 106.582 222.367C105.839 221.622 104.92 221.409 103.894 221.516C103.54 221.516 103.187 221.445 102.904 221.267C102.373 220.983 102.232 220.309 101.701 220.061L101.737 220.025C101.383 219.67 101.065 219.28 100.64 218.996V219.031C100.145 218.57 99.6147 218.073 99.1549 217.576C98.872 217.186 98.6244 216.795 98.2708 216.441L98.2354 216.476C98.0232 216.228 97.8818 215.944 97.8464 215.624C97.8464 215.092 97.5988 214.666 97.2452 214.311C97.2098 213.992 97.1744 213.637 97.1744 213.317C96.75 212.537 96.644 211.72 96.7147 210.833C96.6793 209.697 96.6793 208.562 96.7147 207.426C96.7147 207.036 96.7147 206.61 96.7501 206.219C96.7501 205.794 96.9269 205.439 97.1391 205.084L97.2452 205.119C97.6696 204.764 97.8818 204.339 97.8818 203.806C97.9171 203.487 98.0586 203.203 98.2354 202.954L98.2708 202.99C98.9074 202.245 99.1903 201.357 99.5793 200.506C99.8976 200.08 100.463 199.902 100.711 199.405C101.241 199.157 101.383 198.518 101.843 198.234C103.045 197.879 104 196.992 105.202 196.708C105.945 196.424 106.652 196.069 107.466 195.963L107.431 195.892C107.784 195.608 108.138 195.466 108.598 195.466C109.446 195.431 110.26 195.324 111.002 195.892C111.356 195.927 111.674 195.963 112.028 195.998C112.771 196.105 113.478 196.353 114.115 196.708C114.256 196.744 114.398 196.815 114.539 196.85C115.671 197.241 116.555 198.021 117.651 198.447L117.687 198.412C118.005 198.802 118.359 199.157 118.748 199.441C118.96 199.76 119.207 200.044 119.419 200.364C120.268 201.073 120.304 202.351 121.152 203.025L121.223 202.99C121.4 203.238 121.541 203.522 121.577 203.842C121.577 204.374 121.789 204.8 122.213 205.155L122.284 205.119C122.39 205.865 122.673 206.539 122.744 207.284C122.779 208.562 122.779 209.839 122.744 211.117C122.885 211.827 122.708 212.537 122.319 213.246Z" fill="#1D3B79"/>
<path d="M87.0232 124.486C86.9878 118.808 86.9525 113.165 86.9171 107.487C86.9171 106.777 86.9171 106.067 86.8817 105.357C87.1647 103.902 86.2098 103.902 85.2196 103.902C76.1306 103.902 67.0416 103.902 57.9526 103.902C57.2453 103.902 56.5379 103.867 55.8306 103.831C55.3001 103.228 55.5123 102.482 55.477 101.808C55.4062 100.53 56.0428 99.9627 57.2806 99.9981C59.4026 99.9981 61.5245 99.9981 63.6465 99.9981C72.1342 99.9981 80.5866 99.9981 89.0744 99.9981C91.3732 99.9981 91.3732 99.9981 91.3732 102.376C91.3732 109.297 91.3378 116.182 91.4086 123.102C91.4086 124.344 91.0903 124.841 89.8525 124.664C88.8622 124.522 87.9074 124.877 87.0232 124.486Z" fill="#1D3B7A"/>
<path d="M324.964 195.821C325.283 195.856 325.636 195.892 325.955 195.927C325.99 196.247 325.99 196.566 326.025 196.85C326.91 197.24 327.192 198.66 328.536 198.27L328.501 198.305C328.819 198.695 329.173 199.05 329.597 199.37C329.951 199.37 330.305 199.37 330.623 199.37L330.588 199.405C330.941 199.76 331.259 200.151 331.719 200.399L331.684 200.434C332.391 200.931 332.922 201.677 333.806 201.89C334.053 202.528 334.407 203.025 335.185 203.025C335.609 203.309 335.892 203.735 336.352 203.983C336.67 204.019 336.989 204.019 337.307 204.054C337.307 205.084 337.908 205.226 338.757 205.119L338.722 205.155C339.111 205.474 339.429 205.829 339.783 206.184C340.136 206.219 340.455 206.29 340.808 206.326C340.844 206.61 340.879 206.929 340.879 207.213C341.834 207.461 342.859 207.603 343.355 208.597C343.673 208.633 343.991 208.668 344.309 208.704C344.734 208.988 345.052 209.413 345.441 209.697L345.406 209.733C345.689 210.052 345.866 210.443 345.901 210.869C346.007 212.962 345.901 215.092 345.936 217.186C345.936 217.825 345.866 218.499 346.573 218.889C346.891 218.925 347.209 218.925 347.492 218.96C347.492 219.918 348.164 220.096 348.907 220.167C348.907 220.451 348.942 220.77 348.942 221.054C349.756 221.374 350.711 221.48 351.347 222.19C352.868 222.616 353.505 223.609 353.363 225.206C353.222 226.91 353.505 228.613 353.222 230.317C349.897 230.317 346.608 230.317 343.284 230.317C342.47 230.672 342.117 231.382 342.011 232.233C341.94 232.801 341.763 233.121 341.127 232.801C341.02 232.801 340.879 232.801 340.773 232.801C340.419 232.801 340.066 232.801 339.712 232.801C339.394 232.766 339.04 232.766 338.722 232.73C337.661 231.95 336.6 231.169 335.185 231.311C334.761 230.849 334.195 230.707 333.594 230.672C333.381 230.636 333.169 230.53 332.957 230.423C332.568 229.927 332.108 229.572 331.436 229.678C331.083 229.678 330.764 229.678 330.411 229.678C330.022 229.643 329.703 229.501 329.42 229.288L329.456 229.217C329.527 228.152 328.819 228.117 328.041 228.152C327.688 228.152 327.334 228.152 326.945 228.188C326.591 228.152 326.238 228.117 325.919 228.081C325.919 228.01 325.919 227.904 325.884 227.833C325.672 227.407 325.106 227.478 324.894 227.052L324.858 227.087C323.231 226.91 321.994 225.455 320.296 225.597C319.836 225.384 319.589 224.887 319.129 224.639C318.669 224.639 318.21 224.639 317.75 224.639C317.396 224.603 317.042 224.568 316.689 224.532C316.795 223.716 316.371 223.467 315.628 223.538C314.956 222.793 315.097 221.87 315.097 221.019C315.097 212.998 315.097 204.977 315.097 196.921C315.097 196.176 315.274 195.359 314.496 194.827C305.902 194.792 297.308 194.756 288.715 194.756C282.49 194.756 276.23 194.792 270.006 194.792L270.041 194.756C269.688 192.875 269.865 190.994 269.935 189.113C270.572 188.51 271.35 188.616 272.093 188.616C274.78 188.616 277.504 188.616 280.191 188.616C280.863 188.616 281.677 188.794 281.854 187.765C281.924 184.393 281.854 181.021 281.889 177.65C281.889 176.834 281.783 175.982 282.455 175.308C285.496 175.308 288.538 175.308 291.579 175.308C292.499 176.514 292.004 177.934 292.11 179.247C292.18 179.992 292.145 180.773 292.11 181.554C292.004 182.37 292.286 182.831 293.171 182.761C295.434 182.761 297.733 182.761 299.996 182.761C300.633 182.761 301.305 182.583 301.8 183.186C301.8 183.257 301.835 183.364 301.871 183.399C302.684 184.606 302.224 185.99 302.33 187.303C302.224 188.155 302.366 188.758 303.462 188.581C306.327 188.581 309.156 188.581 312.021 188.581C313.258 188.581 314.425 188.687 315.592 189.149L315.628 189.113C315.981 189.468 316.3 189.858 316.724 190.142L316.689 190.178C317.042 190.533 317.396 190.923 317.821 191.207C318.139 191.243 318.457 191.278 318.811 191.314C319.058 191.988 319.518 192.485 320.261 192.662C320.508 193.017 321.039 192.982 321.286 193.407C321.569 193.798 322.029 193.62 322.383 193.727C322.312 194.792 323.019 194.863 323.797 194.792L323.762 194.827C324.222 195.111 324.575 195.501 324.964 195.821Z" fill="#1D3B7A"/>
<path d="M251.794 115.578C252.112 115.614 252.466 115.614 252.784 115.649C253.173 115.933 253.456 116.394 253.951 116.607C254.376 116.678 254.835 116.714 255.26 116.785C255.189 117.601 255.613 117.85 256.356 117.779C256.71 117.779 257.063 117.743 257.417 117.743C257.771 117.779 258.124 117.814 258.443 117.85C258.372 118.666 258.726 118.985 259.539 118.808C259.857 118.843 260.176 118.843 260.494 118.879C261.06 119.376 260.954 120.05 260.954 120.689C260.954 128 260.954 135.311 260.989 142.657C260.989 143.722 260.812 144.432 259.504 144.041C259.221 143.651 258.796 143.402 258.301 143.402C257.983 143.367 257.665 143.296 257.417 143.118C257.028 142.799 256.745 142.231 256.109 142.373C255.684 142.373 255.26 142.373 254.835 142.338C254.482 142.267 254.163 142.125 253.81 141.947L253.845 141.876C253.527 141.592 253.173 141.273 252.749 141.166C252.607 141.131 252.431 141.06 252.289 140.989C250.981 140.35 249.778 139.356 248.187 139.427H248.151C247.727 139.002 247.267 138.611 246.701 138.434C246.383 138.398 246.029 138.363 245.711 138.327C245.357 137.972 244.898 137.724 244.402 137.724C244.084 137.688 243.801 137.546 243.554 137.369C243.235 137.334 242.882 137.298 242.563 137.263C242.174 136.979 241.856 136.553 241.432 136.304C240.972 136.304 240.512 136.269 240.088 136.269C239.734 136.233 239.381 136.198 239.062 136.127C239.204 135.24 238.744 135.027 237.966 135.169C237.648 135.133 237.329 135.133 237.011 135.098C236.976 135.027 236.94 134.92 236.87 134.849C236.339 134.139 235.49 134.033 234.748 133.785C234.642 133.785 234.535 133.749 234.465 133.714C234.076 133.252 233.581 133.146 233.015 133.11C232.449 132.897 231.812 132.897 231.246 132.72C231.14 132.72 231.034 132.684 230.928 132.649C230.574 132.258 230.15 132.046 229.62 132.046C229.301 132.01 229.018 131.868 228.771 131.691L228.806 131.62C228.417 131.3 228.099 130.91 227.71 130.59C227.356 130.59 227.003 130.59 226.649 130.626C226.543 130.59 226.437 130.555 226.331 130.519C225.482 130.236 225.022 129.348 224.138 129.206C223.572 128.497 223.678 127.645 223.678 126.829C223.678 121.399 223.678 116.004 223.678 110.574C223.714 109.758 223.82 108.906 222.759 108.622C211.583 108.622 200.408 108.622 189.197 108.622C188.595 108.622 188.03 108.587 187.428 108.551C186.862 107.167 186.862 105.747 187.428 104.363C199.205 104.363 210.982 104.328 222.759 104.328C224.138 104.328 224.987 106.031 226.543 105.464C227.038 105.747 227.568 105.925 228.134 105.996C228.665 106.244 229.301 106.209 229.832 106.422L229.796 106.457C230.15 106.777 230.468 107.203 230.928 107.451C231.388 107.522 231.848 107.557 232.307 107.628C232.201 108.445 232.661 108.658 233.368 108.587C233.722 108.587 234.076 108.587 234.429 108.551C234.783 108.587 235.101 108.622 235.455 108.622C235.95 109.722 236.976 109.793 237.966 109.971C238.284 110.432 238.815 110.29 239.274 110.468C239.876 110.787 240.548 110.858 241.184 111C241.29 111 241.396 111.035 241.503 111.071C241.856 111.426 242.281 111.674 242.811 111.674C243.129 111.71 243.412 111.852 243.66 112.029L243.624 112.1C243.589 112.916 243.978 113.271 244.756 113.058C245.216 113.058 245.676 113.094 246.1 113.094C246.312 113.129 246.56 113.129 246.772 113.165C246.913 113.484 247.055 113.839 247.161 114.159C248.788 114.372 249.955 116.04 251.794 115.578Z" fill="#1D3B7A"/>
<path d="M196.481 148.655C196.163 148.655 195.845 148.619 195.526 148.619C195.173 148.3 194.854 147.874 194.395 147.661C194.076 147.625 193.723 147.59 193.404 147.519C192.98 146.987 192.379 146.916 191.778 146.916C191.424 146.88 191.141 146.738 190.893 146.525C190.54 146.49 190.186 146.454 189.868 146.419C189.939 145.567 189.585 145.283 188.772 145.461C188.418 145.461 188.064 145.461 187.711 145.496C187.604 145.461 187.498 145.425 187.392 145.39C187.357 145.319 187.357 145.212 187.322 145.141C186.685 144.36 185.942 143.935 184.881 144.289C184.634 144.289 184.422 144.289 184.174 144.325C184.315 142.515 183.007 142.976 182.017 143.012C181.911 143.012 181.804 142.976 181.698 142.905C181.309 142.444 180.673 142.231 180.354 141.699C180.284 141.521 180.213 141.308 180.178 141.131C180.036 133.891 180.142 126.615 180.107 119.375C180.107 118.843 180.142 118.311 180.461 117.849C180.85 117.459 181.274 117.459 181.734 117.743C182.087 117.778 182.406 117.814 182.759 117.849C182.865 118.169 183.007 118.488 183.113 118.808C184.174 119.163 185.376 118.914 186.367 119.588C187.003 119.908 187.711 120.05 188.418 120.227C188.524 120.263 188.63 120.298 188.736 120.334C188.595 121.221 189.09 121.398 189.833 121.256C190.115 121.008 190.434 121.008 190.787 121.15C191.176 121.753 191.742 121.966 192.414 121.931C192.768 121.966 193.051 122.108 193.334 122.321C193.687 122.357 194.041 122.392 194.395 122.428C194.395 122.747 194.395 123.031 194.43 123.35C195.774 123.492 197.012 123.918 198.143 124.628C198.78 124.699 199.452 124.486 200.089 124.77C200.619 125.48 201.468 125.551 202.211 125.799C202.317 125.799 202.423 125.835 202.529 125.906C202.882 126.296 203.307 126.509 203.837 126.509C204.156 126.544 204.439 126.686 204.686 126.864C205.04 126.899 205.358 126.935 205.712 126.97C205.641 127.716 205.959 128.106 206.737 128C207.02 128.425 207.409 128.354 207.798 128.248C207.94 128.283 208.046 128.283 208.187 128.319C208.435 128.674 208.965 128.674 209.213 129.029C209.885 129.455 210.628 129.277 211.335 129.384C211.971 130.235 212.962 130.235 213.846 130.413L213.811 130.448C214.129 130.874 214.589 131.087 215.119 131.087C215.437 131.123 215.72 131.265 216.003 131.442C216.463 131.513 216.887 131.549 217.347 131.62C217.347 131.939 217.347 132.258 217.347 132.578C217.312 140.598 217.312 148.619 217.276 156.64C216.817 156.675 216.357 156.711 215.932 156.746L215.968 156.64C215.614 156.25 215.19 156.001 214.659 156.001C214.341 155.966 214.058 155.824 213.811 155.611C213.492 155.575 213.139 155.54 212.82 155.504C212.75 155.149 212.82 154.723 212.431 154.511C211.335 154.191 210.132 154.404 209.107 153.73C208.4 153.268 207.515 153.375 206.773 153.055L206.808 153.02C206.454 152.665 206.065 152.452 205.57 152.452C205.252 152.417 204.934 152.346 204.686 152.168C204.297 151.813 204.014 151.316 203.378 151.387C203.059 151.352 202.776 151.21 202.493 151.033C202.034 150.997 201.574 150.926 201.114 150.891C201.114 150.571 201.114 150.252 201.114 149.932C199.452 150.11 198.108 148.903 196.481 148.655Z" fill="#1D3B7A"/>
<path d="M311.032 211.791C308.981 211.791 306.929 211.72 304.914 211.791C303.782 211.827 303.287 211.507 303.393 210.336C303.464 209.413 303.393 208.455 303.393 207.533C305.939 207.107 308.521 207.497 311.103 207.32C311.173 208.775 311.244 210.265 311.032 211.791Z" fill="#203E7C"/>
<path d="M276.867 199.37C279.024 199.37 281.217 199.405 283.374 199.334C284.648 199.299 284.612 200.08 284.612 200.931C284.612 201.783 284.718 202.599 283.41 202.564C281.253 202.493 279.06 202.529 276.903 202.529C276.903 201.499 276.903 200.435 276.867 199.37Z" fill="#1F3D7B"/>
<path d="M311.066 202.564C308.909 202.564 306.716 202.528 304.559 202.599C303.25 202.635 303.357 201.854 303.357 201.002C303.357 200.151 303.286 199.37 304.559 199.405C306.716 199.476 308.909 199.441 311.066 199.441C311.102 200.434 311.066 201.499 311.066 202.564Z" fill="#1F3D7B"/>
<path d="M297.344 199.37C297.344 200.435 297.344 201.499 297.344 202.564C295.753 202.564 294.197 202.493 292.605 202.635C291.014 202.777 290.306 202.245 290.589 200.612C290.66 200.222 290.625 199.796 290.66 199.37C292.888 199.37 295.116 199.37 297.344 199.37Z" fill="#1F3D7B"/>
</svg>
